{"glyphs":{"0":{"ha":883,"x_min":44,"x_max":836,"o":"m 821 256 q 735 94 797 158 q 588 0 672 29 q 410 -20 504 -29 q 229 39 315 -11 q 153 106 185 64 q 101 197 122 147 q 67 300 79 246 q 50 406 56 354 q 44 528 44 465 q 53 653 44 592 q 83 773 63 715 q 138 881 103 831 q 242 983 182 944 q 369 1034 303 1021 q 503 1036 436 1047 q 629 992 569 1025 q 735 905 689 960 q 806 775 781 850 q 825 667 818 739 q 834 516 832 596 q 833 364 836 436 q 821 256 829 292 m 389 326 q 412 258 396 292 q 450 201 428 224 q 499 174 472 179 q 551 192 525 168 q 595 278 582 219 q 610 403 608 336 q 606 536 611 471 q 596 643 600 601 q 578 726 592 683 q 543 797 564 768 q 496 835 522 826 q 440 815 469 843 q 390 719 406 782 q 370 585 374 657 q 373 443 367 513 q 389 326 379 374 z "},"1":{"ha":635,"x_min":14,"x_max":583,"o":"m 290 -14 q 262 -12 276 -15 q 239 1 247 -10 q 231 24 232 11 q 229 49 229 36 q 228 269 226 160 q 238 490 231 379 q 247 621 240 557 q 261 750 254 685 q 172 649 219 696 q 154 633 164 640 q 132 622 144 625 q 108 630 122 622 q 81 649 94 638 q 56 671 68 660 q 35 689 43 682 q 22 706 28 696 q 14 726 15 715 q 21 745 14 735 q 38 767 28 756 q 57 789 47 779 q 71 806 67 799 q 128 888 101 846 q 179 972 156 929 q 194 997 182 979 q 210 1021 206 1015 q 233 1033 219 1029 q 260 1036 247 1036 q 327 1035 293 1036 q 394 1032 361 1035 q 444 1029 415 1029 q 499 1026 472 1029 q 548 1013 526 1022 q 576 985 569 1004 q 578 971 578 981 q 577 951 578 961 q 575 930 576 940 q 574 915 574 919 q 560 774 565 844 q 553 633 556 704 q 556 392 549 511 q 574 151 563 272 q 580 97 576 124 q 576 43 583 69 q 562 16 574 28 q 536 -1 550 4 q 488 -10 513 -10 q 440 -10 464 -10 q 365 -11 403 -10 q 290 -14 328 -12 z "},"2":{"ha":825,"x_min":40,"x_max":783,"o":"m 242 -28 q 183 -29 213 -28 q 124 -24 153 -31 q 76 7 93 -17 q 66 29 69 17 q 60 53 63 42 q 55 93 56 72 q 54 135 54 114 q 66 168 54 153 q 90 194 78 183 q 155 254 122 225 q 215 315 188 283 q 334 475 281 390 q 419 653 388 560 q 446 780 449 735 q 424 837 443 825 q 375 833 404 849 q 322 777 346 817 q 288 678 299 738 q 293 547 276 619 q 285 513 297 528 q 265 497 276 503 q 242 486 253 492 q 208 472 228 481 q 166 456 188 463 q 126 447 144 449 q 94 454 107 446 q 80 474 86 460 q 69 506 74 489 q 60 540 64 524 q 54 567 56 557 q 49 708 40 636 q 90 842 58 779 q 173 954 121 906 q 299 1025 225 1003 q 459 1043 378 1049 q 607 1004 540 1038 q 716 910 674 971 q 760 761 758 849 q 756 709 760 739 q 744 649 751 679 q 727 589 736 618 q 710 539 718 560 q 625 372 674 451 q 529 213 576 293 q 587 221 558 215 q 643 235 615 226 q 672 246 654 239 q 706 258 689 253 q 740 264 724 263 q 765 258 756 265 q 774 242 771 254 q 777 217 776 231 q 778 190 778 203 q 779 168 778 176 q 782 128 781 149 q 782 86 783 107 q 776 53 781 69 q 760 25 771 36 q 724 2 744 10 q 682 -8 703 -6 q 532 -20 607 -17 q 381 -26 457 -24 q 311 -28 346 -29 q 242 -28 276 -26 z "},"3":{"ha":783,"x_min":31,"x_max":735,"o":"m 622 35 q 477 -32 556 -15 q 321 -35 399 -49 q 172 19 243 -22 q 50 125 101 60 q 31 176 31 150 q 47 224 32 201 q 86 265 61 247 q 140 294 111 283 q 164 294 153 299 q 186 280 175 289 q 207 260 197 271 q 226 240 217 249 q 253 219 236 229 q 288 200 269 208 q 323 189 306 192 q 354 192 340 186 q 391 240 379 201 q 402 322 403 278 q 389 403 401 365 q 351 453 376 442 q 299 457 326 463 q 246 454 272 451 q 217 472 228 456 q 201 511 206 489 q 199 556 197 533 q 213 592 201 578 q 239 612 222 606 q 274 621 256 618 q 310 627 292 624 q 343 640 328 631 q 401 692 382 665 q 425 744 419 718 q 424 795 431 769 q 408 846 418 821 q 375 870 397 872 q 328 850 353 868 q 280 803 303 832 q 244 750 257 775 q 216 722 233 728 q 178 718 199 715 q 134 730 157 721 q 89 750 111 739 q 58 784 64 763 q 60 832 53 806 q 82 886 67 858 q 114 938 97 914 q 179 998 140 974 q 264 1035 218 1022 q 358 1053 310 1049 q 451 1054 407 1058 q 569 1017 517 1049 q 657 938 621 986 q 711 832 693 890 q 726 715 729 774 q 698 599 724 656 q 622 501 672 543 q 705 390 676 453 q 734 263 733 328 q 708 138 735 199 q 622 35 681 78 z "},"4":{"ha":1054,"x_min":46,"x_max":1019,"o":"m 835 -12 q 808 -21 822 -19 q 778 -22 793 -22 q 726 -22 751 -24 q 674 -19 700 -21 q 642 -15 658 -18 q 614 0 625 -12 q 604 23 608 7 q 597 58 600 39 q 593 94 594 76 q 590 121 592 111 q 585 194 588 157 q 581 269 582 232 q 572 269 576 269 q 565 268 568 268 q 522 265 543 267 q 479 264 501 264 q 458 260 471 261 q 433 258 446 260 q 410 256 421 257 q 394 256 400 256 q 321 253 358 253 q 247 253 283 253 q 183 256 215 254 q 118 267 150 258 q 87 280 103 271 q 63 304 71 289 q 49 344 51 322 q 49 388 46 367 l 53 425 q 52 455 51 440 q 51 485 53 469 q 56 710 50 597 q 85 935 61 824 q 100 983 90 958 q 129 1024 110 1008 q 180 1047 151 1042 q 236 1051 208 1051 q 276 1050 250 1051 q 331 1044 303 1049 q 383 1034 358 1040 q 419 1019 408 1028 q 439 993 432 1011 q 445 965 444 979 q 443 936 446 950 q 434 876 440 906 q 422 817 428 847 q 404 719 413 768 q 389 622 396 671 q 379 555 383 589 q 374 488 375 521 l 375 488 q 388 490 382 488 q 399 492 393 492 q 478 505 439 499 q 557 517 517 511 l 557 547 q 562 610 560 579 q 567 671 564 640 q 573 758 569 715 q 581 846 576 801 q 589 899 583 872 q 614 946 594 926 q 658 971 632 965 q 711 976 685 976 q 791 977 751 978 q 871 971 831 976 q 918 957 899 968 q 942 931 932 949 q 949 901 949 917 q 950 869 950 885 q 945 827 949 849 q 939 783 942 806 q 925 683 932 733 q 911 581 918 632 q 928 583 919 582 q 947 585 938 583 q 973 583 960 586 q 996 574 986 581 q 1008 557 1004 567 q 1014 536 1011 547 q 1017 499 1017 517 q 1017 463 1017 482 q 1019 407 1018 435 q 1015 351 1019 379 q 1001 317 1013 331 q 980 304 994 308 q 949 299 965 300 q 914 297 932 297 q 882 297 896 297 q 876 181 878 239 q 869 64 874 122 q 865 39 868 57 q 860 14 863 21 q 835 -12 850 -4 z "},"5":{"ha":860,"x_min":51,"x_max":824,"o":"m 601 -3 q 470 -33 543 -26 q 326 -28 397 -40 q 194 13 256 -17 q 99 96 133 43 q 76 135 88 113 q 59 180 65 157 q 54 224 53 203 q 69 261 56 246 q 110 278 82 274 q 169 281 139 283 q 223 270 199 279 q 250 247 247 261 q 264 205 254 226 q 288 168 274 183 q 319 146 301 153 q 357 147 336 139 q 403 178 383 157 q 435 227 422 200 q 456 285 449 254 q 468 344 464 317 q 472 431 474 385 q 458 510 469 476 q 426 558 447 544 q 375 546 406 571 q 356 525 364 538 q 340 500 347 513 q 323 476 332 488 q 301 458 314 465 q 235 441 274 443 q 160 449 196 439 q 95 480 124 458 q 58 532 67 501 q 52 598 53 551 q 53 696 51 644 q 56 793 54 747 q 61 860 58 839 q 65 898 63 874 q 72 946 67 922 q 83 990 76 969 q 103 1019 90 1011 q 163 1040 124 1033 q 249 1051 201 1047 q 351 1054 297 1054 q 453 1053 404 1054 q 544 1051 503 1053 q 611 1050 586 1050 q 645 1051 625 1050 q 685 1049 665 1051 q 719 1041 704 1047 q 740 1021 735 1035 q 752 955 753 988 q 738 897 751 922 q 700 858 725 872 q 639 846 675 843 q 506 856 572 850 q 374 863 440 861 q 362 824 367 849 q 356 774 357 800 q 356 724 354 749 q 364 685 357 699 q 466 703 413 700 q 571 697 519 707 q 704 634 650 683 q 788 517 758 585 q 820 372 817 450 q 801 220 824 293 q 728 88 778 147 q 601 -3 678 28 z "},"6":{"ha":857,"x_min":35,"x_max":828,"o":"m 642 33 q 538 -8 593 6 q 428 -19 483 -22 q 317 1 372 -18 q 218 53 263 21 q 126 145 165 90 q 67 261 86 200 q 41 389 47 324 q 44 518 35 454 q 87 681 56 601 q 167 831 118 761 q 214 888 188 861 q 271 938 240 914 q 358 1002 311 974 q 456 1051 406 1031 q 524 1073 488 1065 q 596 1074 560 1081 q 607 1070 599 1072 q 618 1065 615 1068 q 646 1037 635 1054 q 664 1001 657 1019 q 676 965 669 986 q 685 920 682 943 q 688 877 689 897 q 676 844 686 857 q 656 828 668 833 q 631 817 643 822 q 589 804 610 810 q 549 792 568 799 q 449 736 494 772 q 417 706 432 722 q 390 669 401 689 q 519 683 453 686 q 643 656 585 681 q 672 644 658 650 q 699 628 686 638 q 718 612 710 621 q 735 593 726 603 q 787 516 767 560 q 815 428 807 472 q 820 303 828 367 q 783 185 813 239 q 723 100 760 139 q 642 33 686 61 m 426 181 q 446 166 432 175 q 468 158 460 157 q 481 166 474 158 q 492 179 489 174 q 521 251 515 211 q 526 332 526 292 q 523 381 526 353 q 511 438 519 410 q 490 488 503 465 q 460 521 478 511 q 448 524 454 524 q 435 525 442 525 q 407 515 419 525 q 384 492 394 506 q 366 463 374 479 q 356 432 358 446 q 353 406 353 419 q 354 379 353 393 q 359 326 354 353 q 372 274 364 300 q 394 224 381 249 q 426 181 407 200 z "},"7":{"ha":663,"x_min":31,"x_max":649,"o":"m 414 -11 q 392 -20 404 -18 q 367 -22 379 -22 q 296 -17 331 -19 q 225 -11 261 -14 q 173 -8 199 -8 q 121 -4 147 -7 q 90 4 106 -3 q 74 15 82 8 q 64 32 67 22 q 61 58 60 44 q 65 85 63 72 q 90 169 76 128 q 122 251 104 211 q 191 409 158 331 q 265 563 224 488 q 323 664 293 614 q 381 767 353 714 q 249 761 314 768 q 117 749 183 754 q 95 748 106 747 q 75 753 85 749 q 64 760 68 756 q 57 769 60 764 q 51 788 53 775 q 47 816 49 801 q 43 844 44 831 q 42 864 42 857 q 38 923 39 893 q 35 982 36 953 q 32 994 33 989 q 31 1007 31 1000 q 50 1039 31 1026 q 77 1049 63 1047 q 107 1053 92 1050 q 174 1063 140 1060 q 242 1071 207 1067 q 374 1081 308 1078 q 507 1074 440 1085 q 555 1062 531 1069 q 603 1046 579 1054 q 632 1027 618 1039 q 649 999 646 1015 q 648 986 649 994 q 647 968 647 978 q 644 950 646 958 q 643 938 643 942 q 598 763 625 849 q 543 592 571 678 q 490 402 514 497 q 453 210 465 307 q 444 121 447 165 q 433 32 440 76 q 427 8 431 19 q 414 -11 424 -4 z "},"8":{"ha":878,"x_min":38,"x_max":832,"o":"m 518 -39 q 408 -42 463 -42 q 299 -36 353 -43 q 242 -25 269 -33 q 188 -7 214 -17 q 108 43 140 11 q 51 136 69 81 q 41 229 38 181 q 61 321 44 278 q 186 522 106 433 q 163 549 174 535 q 146 571 151 564 q 121 606 131 589 q 103 649 110 626 q 93 694 96 671 q 96 793 86 743 q 129 886 106 843 q 165 934 143 913 q 211 975 188 956 q 329 1038 264 1015 q 464 1060 394 1060 q 538 1058 500 1060 q 613 1046 576 1057 q 678 1015 647 1035 q 736 971 708 996 q 797 895 772 939 q 826 803 821 851 q 813 685 832 744 q 758 579 794 625 q 730 542 744 560 q 699 510 715 525 q 715 493 707 501 q 729 476 722 485 q 776 415 753 446 q 813 347 800 383 q 828 267 826 310 q 818 188 831 225 q 754 65 797 122 q 719 31 739 46 q 676 6 699 17 q 599 -24 640 -12 q 518 -39 558 -36 m 418 754 q 449 710 432 731 q 483 668 467 689 q 494 676 489 672 q 506 686 500 681 q 544 754 535 714 q 538 833 553 794 q 513 869 529 853 q 476 890 496 885 q 446 889 464 894 q 405 859 419 882 q 394 810 390 836 q 404 781 397 794 q 418 754 411 767 m 290 182 q 322 165 303 171 q 363 158 342 160 q 405 158 385 156 q 440 167 425 160 q 478 201 465 178 q 485 235 485 217 q 479 269 485 254 q 460 310 472 292 q 435 347 449 329 q 361 426 403 389 q 356 431 357 431 q 351 426 351 431 q 315 377 329 404 q 289 322 301 350 q 273 269 278 297 q 274 214 268 242 q 280 197 276 206 q 290 182 283 188 z "},"9":{"ha":853,"x_min":33,"x_max":817,"o":"m 349 -26 q 278 -43 315 -37 q 208 -37 242 -49 q 197 -33 206 -36 q 186 -28 189 -31 q 161 3 171 -15 q 146 40 151 21 q 137 78 142 56 q 131 124 132 100 q 131 168 129 147 q 144 200 133 189 q 167 215 154 210 q 194 224 181 219 q 235 233 214 231 q 278 242 257 236 q 331 263 306 250 q 381 292 357 275 q 444 353 419 315 q 316 349 382 342 q 193 388 250 357 q 166 402 179 394 q 142 419 153 410 q 123 438 131 428 q 107 458 115 447 q 62 540 78 494 q 40 632 46 586 q 47 758 33 694 q 92 874 60 821 q 159 955 119 918 q 246 1015 199 992 q 351 1049 294 1039 q 463 1051 408 1058 q 572 1020 519 1044 q 667 960 624 996 q 750 860 715 918 q 800 738 785 801 q 816 608 815 674 q 801 476 817 542 q 746 315 783 393 q 656 171 708 238 q 542 72 608 115 q 450 15 499 40 q 349 -26 401 -10 m 388 508 q 413 503 397 503 q 440 510 426 503 q 466 531 454 518 q 486 560 478 544 q 499 589 494 575 q 503 615 503 601 q 504 642 504 629 q 504 697 507 669 q 494 750 501 724 q 478 803 488 778 q 449 849 468 829 q 430 865 443 856 q 408 875 417 875 q 394 868 403 875 q 383 856 386 861 q 349 785 358 825 q 336 704 339 744 q 336 655 335 683 q 343 597 338 626 q 360 544 349 568 q 388 508 371 519 z "},"\u0000":{"ha":0,"x_min":0,"x_max":0,"o":""},"\r":{"ha":417,"x_min":0,"x_max":0,"o":""}," ":{"ha":417,"x_min":0,"x_max":0,"o":""},"\"":{"ha":567,"x_min":29,"x_max":536,"o":"m 478 688 q 457 680 469 682 q 430 677 444 678 q 402 678 415 676 q 381 683 389 681 q 359 703 368 688 q 344 737 350 718 q 333 775 338 756 q 326 807 329 794 q 310 880 318 843 q 307 953 303 917 q 312 975 308 964 q 322 994 315 986 q 353 1013 333 1006 q 395 1022 372 1019 q 440 1022 418 1024 q 478 1017 463 1021 q 508 1002 493 1013 q 529 976 522 992 q 533 932 536 956 q 528 886 531 908 q 499 726 518 807 q 491 705 496 715 q 478 688 486 694 m 204 688 q 183 679 196 682 q 156 676 171 676 q 128 678 142 676 q 107 682 115 679 q 85 701 94 686 q 70 736 76 717 q 60 775 64 756 q 53 807 56 794 q 37 879 44 843 q 33 951 29 915 q 49 993 36 978 q 79 1011 60 1004 q 122 1021 99 1018 q 167 1022 144 1024 q 204 1017 189 1021 q 234 1001 219 1013 q 256 975 249 990 q 260 931 263 954 q 254 885 257 908 q 225 725 244 806 q 217 704 222 714 q 204 688 213 694 z "},"#":{"ha":1132,"x_min":33,"x_max":1097,"o":"m 797 26 q 771 22 785 22 q 686 28 728 24 q 601 40 644 33 q 578 45 590 43 q 556 53 567 47 q 535 79 539 63 q 535 113 532 96 q 538 146 538 129 q 541 197 538 172 q 547 249 544 222 q 550 270 549 260 q 553 292 551 281 q 486 293 519 293 q 418 293 453 293 q 404 205 411 249 q 389 117 397 161 q 377 81 385 99 q 354 53 369 64 q 329 42 343 44 q 301 39 315 39 q 251 42 276 40 q 203 50 226 44 q 185 55 193 53 q 168 61 176 57 q 155 71 161 64 q 146 86 149 78 q 144 103 144 92 q 145 128 144 115 q 147 152 146 140 q 150 169 149 164 q 154 223 153 197 q 158 276 156 249 l 158 283 q 88 279 122 283 l 72 279 q 36 315 39 282 q 33 359 33 338 q 33 401 33 381 q 33 428 33 415 q 39 454 33 442 q 56 472 44 468 l 76 476 q 129 478 103 478 q 182 481 156 479 q 187 514 185 497 q 192 547 189 531 q 161 545 176 546 q 131 543 146 544 l 115 543 q 79 579 82 546 q 76 636 76 607 q 78 694 75 665 q 81 714 78 704 q 90 731 83 724 q 105 738 97 736 q 119 740 113 739 l 224 744 q 235 802 229 774 q 247 860 240 831 q 268 947 256 903 q 279 976 272 961 q 301 997 286 990 q 340 1002 314 1003 q 396 999 367 1001 q 452 991 425 996 q 493 982 479 986 q 525 974 508 979 q 553 960 542 968 q 572 940 565 951 q 572 913 578 928 q 571 889 574 900 q 565 867 568 878 q 547 803 556 835 q 528 739 538 771 l 554 739 q 600 737 578 738 q 646 736 622 736 q 659 787 653 761 q 672 839 665 813 q 680 878 675 853 q 692 928 685 903 q 708 974 699 953 q 729 1004 717 996 q 769 1012 743 1013 q 825 1006 796 1011 q 881 994 854 1000 q 924 983 908 988 q 953 978 939 981 q 982 972 967 975 q 1002 965 993 971 q 1014 949 1011 958 q 1016 926 1018 938 q 1010 903 1014 914 q 996 860 1003 882 q 982 818 989 839 q 968 772 975 794 q 954 726 961 750 q 994 724 974 725 q 1036 719 1015 722 q 1053 718 1044 718 q 1068 715 1061 718 q 1094 686 1088 707 q 1097 672 1096 682 q 1097 651 1097 663 q 1097 628 1097 639 q 1097 614 1097 618 q 1094 577 1096 596 q 1082 544 1093 558 q 1061 533 1075 535 q 1036 532 1047 532 q 970 535 1003 533 q 906 539 938 536 q 889 464 894 501 q 993 456 940 461 q 1006 454 1000 454 q 1018 453 1011 454 q 1042 438 1032 450 q 1054 411 1053 425 q 1055 384 1054 401 q 1054 347 1056 367 q 1050 310 1053 328 q 1042 285 1047 293 q 1024 271 1035 274 q 985 269 1004 268 q 946 271 965 269 q 899 273 922 272 q 851 276 875 274 q 841 219 846 247 q 832 161 836 190 q 826 110 829 136 q 819 58 824 85 q 812 40 817 49 q 797 26 807 31 m 588 472 q 595 514 592 493 q 604 556 599 535 q 541 557 572 557 q 478 557 510 557 q 468 516 474 536 q 457 476 463 496 q 477 476 468 476 q 497 475 486 475 l 588 472 z "},"$":{"ha":804,"x_min":32,"x_max":761,"o":"m 485 -190 q 444 -192 465 -192 q 403 -192 424 -192 q 372 -188 392 -192 q 346 -175 353 -185 q 333 -135 332 -158 q 336 -93 333 -112 q 338 -75 338 -83 q 339 -58 339 -67 q 225 -34 281 -54 q 129 21 169 -14 q 69 106 89 57 q 40 203 50 154 q 33 250 35 226 q 36 297 32 274 q 51 318 39 308 q 76 331 63 328 q 112 334 89 333 q 158 333 135 335 q 204 327 182 331 q 238 318 226 324 q 258 305 249 313 q 269 286 267 297 q 278 265 276 275 q 283 243 281 254 q 287 221 285 235 q 292 192 289 207 q 301 165 296 178 q 315 149 307 153 q 365 140 333 140 q 413 149 396 139 q 427 165 422 154 q 432 186 432 175 q 419 228 431 208 q 393 265 408 249 q 331 325 364 297 q 267 382 299 353 q 144 518 193 444 q 122 561 132 539 q 108 607 113 583 q 106 703 101 656 q 124 799 111 751 q 167 879 135 843 q 224 928 190 907 q 293 964 257 949 q 290 990 292 974 q 285 1024 288 1006 q 283 1057 283 1042 q 286 1079 283 1072 q 294 1092 289 1086 q 307 1101 300 1097 q 335 1108 317 1106 q 374 1110 354 1110 q 413 1108 394 1110 q 442 1101 431 1106 q 475 1074 464 1094 q 481 1050 481 1063 q 481 1025 482 1038 q 479 1009 479 1017 q 478 993 479 1001 q 494 990 486 992 q 511 986 503 989 q 551 975 531 981 q 590 961 571 969 q 645 931 619 950 q 688 889 671 913 q 739 784 721 840 q 760 671 757 728 q 760 640 761 656 q 751 610 758 625 q 711 579 740 586 q 688 577 704 578 q 654 576 672 576 q 619 576 636 576 q 597 576 603 576 q 569 576 586 571 q 547 592 551 581 q 535 669 533 629 q 528 750 538 710 q 517 776 524 763 q 500 799 511 790 q 466 810 486 808 q 433 803 446 813 q 419 777 425 796 q 413 747 414 758 q 422 681 410 714 q 458 619 435 647 q 544 527 499 571 q 633 438 589 483 q 683 382 658 410 q 724 322 707 354 q 744 215 749 272 q 732 136 742 175 q 699 65 722 97 q 655 24 682 42 q 600 -8 628 6 q 507 -43 557 -31 q 512 -79 510 -61 q 517 -115 514 -97 q 520 -146 518 -125 q 517 -175 522 -167 q 503 -185 513 -182 q 485 -190 494 -189 z "},"%":{"ha":1589,"x_min":26,"x_max":1567,"o":"m 685 -7 q 678 -22 682 -14 q 670 -36 675 -31 q 660 -44 665 -42 q 647 -44 654 -47 q 631 -43 642 -46 q 624 -40 628 -42 q 618 -37 621 -39 q 578 -23 599 -29 q 538 -11 557 -17 q 507 1 518 -7 q 494 17 500 7 q 486 35 488 26 q 492 67 485 46 q 508 110 499 88 q 525 154 517 133 q 538 186 533 175 q 753 665 635 433 q 767 695 760 681 q 783 725 775 710 l 783 726 q 835 828 807 779 q 889 926 864 876 q 901 953 893 936 q 917 987 908 969 q 936 1018 926 1004 q 956 1036 946 1032 q 978 1039 967 1040 q 1000 1035 989 1038 q 1033 1024 1011 1032 q 1078 1008 1056 1017 q 1122 989 1101 999 q 1150 971 1142 979 q 1161 949 1158 963 q 1157 928 1164 936 q 1146 913 1150 921 q 1138 896 1142 904 q 1106 840 1122 868 q 1074 783 1090 811 q 991 647 1032 715 q 914 506 950 578 q 792 251 849 379 q 685 -7 736 124 m 514 403 q 400 363 461 372 q 279 361 339 353 q 167 396 219 369 q 82 465 115 422 q 39 555 51 504 q 28 658 26 606 q 47 763 31 711 q 89 856 63 814 q 174 935 119 903 q 293 981 229 967 q 422 989 357 994 q 540 954 488 983 q 653 838 617 911 q 685 683 689 764 q 638 526 681 601 q 514 403 594 450 m 293 600 q 304 564 296 582 q 324 534 313 546 q 350 519 336 522 q 379 528 364 515 q 413 577 400 544 q 433 647 426 610 q 438 722 439 685 q 431 785 436 760 q 421 811 428 799 q 405 831 414 824 q 384 840 396 839 q 361 832 372 842 q 328 788 342 817 q 305 724 314 758 q 292 656 296 690 q 293 600 289 622 m 1392 54 q 1278 13 1339 24 q 1157 11 1217 3 q 1045 47 1097 19 q 960 117 993 74 q 917 206 929 156 q 906 310 904 257 q 924 414 908 363 q 967 507 940 465 q 1052 585 997 553 q 1171 631 1107 617 q 1300 639 1235 644 q 1418 604 1365 633 q 1531 488 1494 561 q 1563 333 1567 414 q 1515 177 1558 253 q 1392 54 1472 101 m 1171 250 q 1182 215 1174 232 q 1201 185 1190 197 q 1226 169 1213 172 q 1256 178 1240 167 q 1291 228 1278 194 q 1310 299 1304 261 q 1315 373 1315 336 q 1308 436 1314 410 q 1299 463 1306 450 q 1282 483 1292 475 q 1261 492 1272 490 q 1239 483 1250 493 q 1206 438 1219 468 q 1183 374 1192 408 q 1170 306 1174 340 q 1171 250 1167 272 z "},"&":{"ha":967,"x_min":33,"x_max":954,"o":"m 728 -74 q 705 -75 719 -74 q 675 -76 690 -76 q 646 -75 660 -76 q 625 -69 632 -74 q 613 -39 608 -58 q 626 11 619 -14 q 638 61 632 36 q 610 45 624 53 q 582 29 597 38 q 526 1 554 14 q 465 -18 497 -11 q 334 -34 401 -33 q 204 -12 267 -35 q 139 22 168 -1 q 88 75 110 46 q 46 163 58 114 q 39 260 33 213 q 52 312 42 288 q 78 360 63 336 q 174 468 117 421 q 296 549 231 515 q 246 560 271 553 q 199 581 221 567 q 135 633 163 601 q 94 703 108 665 q 93 813 76 758 q 116 863 100 839 q 151 906 132 886 q 245 969 192 944 q 356 1006 299 994 q 479 1010 417 1017 q 600 983 542 1004 q 665 949 633 972 q 658 976 661 963 q 649 1001 654 989 q 633 1038 642 1021 q 618 1072 625 1054 q 623 1095 613 1085 q 647 1108 633 1106 q 733 1124 689 1121 q 822 1128 778 1128 q 866 1130 843 1128 q 909 1130 889 1132 q 942 1119 929 1128 q 953 1090 954 1110 q 947 1062 953 1075 q 938 1036 942 1049 q 906 938 919 988 q 886 836 893 888 q 884 794 883 815 q 882 751 885 772 q 861 713 879 725 q 842 704 853 706 q 819 703 831 703 q 764 699 792 703 q 708 692 736 696 q 678 699 690 689 q 668 726 665 710 q 648 788 675 764 q 581 822 621 813 q 498 824 540 831 q 432 796 456 818 q 414 768 418 783 q 413 737 410 753 q 428 708 417 721 q 457 688 440 694 q 517 672 485 676 q 579 671 549 667 q 602 665 594 674 q 613 641 610 656 q 615 610 615 626 q 617 581 615 593 q 619 568 617 576 q 622 551 621 560 q 623 533 622 542 q 622 519 624 524 q 604 498 618 506 q 578 483 590 490 q 540 461 558 472 q 507 436 522 450 q 473 397 488 419 q 451 351 458 375 q 453 270 440 310 q 492 209 467 231 q 548 192 518 188 q 600 243 578 197 q 613 282 608 263 q 619 321 617 301 q 620 335 619 324 q 624 350 621 347 q 647 369 631 365 q 673 370 660 371 q 697 369 686 369 q 728 370 707 369 q 774 371 750 371 q 819 369 799 371 q 849 364 840 368 q 861 348 858 358 q 864 326 864 338 q 861 301 864 314 q 858 279 858 289 q 867 118 850 197 q 889 51 875 83 q 921 -12 903 19 q 928 -31 925 -21 q 926 -49 931 -40 q 913 -62 924 -58 q 892 -68 903 -67 q 810 -71 851 -71 q 728 -74 769 -71 z "},"'":{"ha":293,"x_min":29,"x_max":263,"o":"m 204 682 q 183 674 196 676 q 156 672 171 672 q 128 672 142 671 q 107 676 115 674 q 85 696 94 681 q 70 731 76 711 q 60 769 64 750 q 53 801 56 789 q 37 874 44 838 q 33 946 29 910 q 38 969 35 957 q 49 988 42 981 q 79 1006 60 1000 q 122 1015 99 1013 q 167 1017 144 1018 q 204 1011 189 1015 q 234 997 219 1007 q 256 971 249 986 q 260 926 263 949 q 254 879 257 903 q 225 719 243 797 q 217 699 222 708 q 204 682 213 689 z "},"(":{"ha":507,"x_min":39,"x_max":489,"o":"m 460 -51 q 426 -59 450 -56 q 393 -61 403 -62 q 305 -43 349 -57 q 225 -3 261 -29 q 144 81 176 31 q 92 188 111 132 q 46 411 53 294 q 58 640 39 528 q 83 738 68 689 q 121 831 97 786 q 167 901 142 867 q 225 965 193 936 q 282 1013 253 990 q 346 1047 311 1036 q 389 1059 367 1054 q 432 1060 411 1064 q 461 1034 456 1056 q 464 989 467 1013 q 465 971 463 983 q 467 944 467 958 q 465 919 468 931 q 451 903 461 907 q 417 877 432 894 q 392 842 403 860 q 362 790 374 814 q 344 740 350 765 q 334 688 338 715 q 329 628 331 661 q 327 463 326 544 q 343 299 328 381 q 374 199 354 249 q 429 114 393 150 q 449 100 439 107 q 467 85 458 93 q 476 72 472 79 q 481 58 481 65 l 481 56 q 486 -6 489 28 q 460 -51 483 -39 z "},")":{"ha":507,"x_min":18,"x_max":467,"o":"m 114 -61 q 100 -60 110 -61 q 80 -58 90 -60 q 60 -56 69 -57 q 47 -51 51 -54 q 28 -33 35 -46 q 20 -6 22 -21 q 20 26 18 10 q 26 56 22 42 l 26 58 q 31 72 26 65 q 40 85 35 79 q 58 100 47 93 q 76 114 68 107 q 132 199 113 150 q 163 299 151 249 q 180 463 179 381 q 176 628 181 544 q 172 688 175 661 q 163 740 169 715 q 144 790 156 765 q 115 842 133 814 q 88 877 103 860 q 54 903 74 894 q 42 919 44 907 q 40 944 39 931 q 42 971 40 958 q 43 989 44 983 q 46 1034 40 1013 q 75 1060 51 1056 q 118 1059 96 1064 q 160 1047 140 1054 q 225 1013 196 1036 q 282 965 254 990 q 340 901 314 936 q 386 831 365 867 q 424 738 410 786 q 447 640 439 689 q 460 411 467 528 q 415 188 454 294 q 363 81 396 132 q 282 -3 329 31 q 202 -43 246 -29 q 114 -61 158 -57 z "},"*":{"ha":575,"x_min":29,"x_max":544,"o":"m 300 511 q 257 515 281 511 q 228 538 233 518 q 226 550 226 544 q 226 563 225 556 q 234 616 229 590 q 240 669 239 642 q 195 638 217 654 q 151 606 174 621 q 142 599 147 603 q 132 594 138 596 q 115 600 124 593 q 99 616 107 607 q 85 636 92 625 q 74 654 79 647 q 60 673 67 664 q 50 693 53 682 q 47 708 47 699 q 49 724 46 718 q 60 738 53 732 q 76 749 68 744 q 105 760 90 756 q 135 767 119 764 q 156 774 142 769 q 185 782 169 778 q 136 806 161 794 q 85 828 111 818 q 66 834 75 831 q 49 840 57 838 q 32 867 29 847 q 44 887 33 874 q 57 906 54 900 q 71 928 63 915 q 89 954 79 942 q 108 975 99 967 q 129 982 118 983 q 147 976 139 981 q 161 967 154 972 q 197 934 172 957 q 242 888 221 911 q 233 938 238 913 q 222 988 228 963 q 219 1005 219 996 q 224 1021 219 1014 q 246 1038 231 1033 q 276 1046 261 1043 q 301 1050 286 1047 q 332 1053 317 1053 q 360 1053 347 1054 q 381 1044 374 1051 q 387 1029 386 1038 q 386 1014 388 1021 q 378 950 383 982 q 367 886 374 918 q 393 915 381 901 q 418 944 406 929 q 432 958 425 951 q 447 968 439 965 q 479 968 463 978 q 508 948 496 961 q 532 921 521 935 q 540 889 544 906 q 529 870 538 878 q 514 856 521 863 q 464 819 490 836 q 410 788 438 803 q 439 773 425 781 q 467 757 453 765 q 502 735 485 746 q 531 707 519 725 q 533 671 540 689 q 527 654 532 664 q 517 635 522 644 q 505 617 511 625 q 493 606 499 608 q 469 603 481 600 q 456 610 463 606 q 443 619 450 614 q 407 649 425 635 q 369 675 389 663 q 376 619 374 649 q 381 578 379 589 q 381 549 382 564 q 369 525 381 535 q 356 519 365 521 q 337 515 347 517 q 316 513 326 514 q 300 511 306 511 z "},"+":{"ha":742,"x_min":21,"x_max":718,"o":"m 472 93 q 432 87 460 90 q 373 82 404 83 q 314 81 342 81 q 274 85 286 81 q 242 108 253 89 q 235 135 235 121 q 235 165 235 150 q 235 242 235 204 q 238 319 236 281 q 225 320 231 319 q 217 321 219 321 q 181 317 204 319 q 131 314 157 315 q 81 314 104 313 q 49 322 58 315 q 36 337 40 328 q 29 356 32 346 q 25 458 21 406 q 30 478 26 468 q 42 493 33 488 q 66 499 50 497 q 101 502 82 501 q 137 502 119 503 q 163 501 154 501 q 192 501 178 501 q 222 499 207 500 q 219 588 219 543 q 224 676 219 632 q 228 703 226 690 q 240 726 231 717 q 267 742 251 738 q 297 749 282 747 q 371 751 333 751 q 444 750 408 751 q 462 750 450 750 q 485 749 474 750 q 508 746 497 747 q 522 740 518 744 q 536 714 533 731 q 535 701 536 710 q 533 682 535 692 q 530 663 532 672 q 528 650 528 654 q 515 581 521 615 q 504 511 510 546 q 581 514 543 514 q 658 511 619 514 q 696 506 679 511 q 714 485 707 499 q 718 463 718 478 q 717 432 718 449 q 713 400 715 415 q 710 376 711 385 q 705 359 708 368 q 694 343 701 350 q 678 336 688 338 q 660 333 669 335 q 572 333 615 332 q 485 331 529 333 q 486 324 486 328 q 488 265 486 294 q 492 207 489 236 q 494 187 492 200 q 497 159 496 174 q 499 131 499 144 q 497 113 499 118 q 472 93 490 97 z "},",":{"ha":328,"x_min":25,"x_max":303,"o":"m 219 -107 q 193 -115 208 -115 q 171 -101 178 -114 q 169 -87 168 -94 q 172 -74 169 -81 q 181 -44 175 -65 q 190 -3 186 -22 q 115 -8 156 -15 q 57 32 79 0 q 51 39 54 33 q 31 76 38 54 q 26 121 25 99 q 54 196 31 161 q 98 235 71 219 q 153 254 125 251 q 224 245 194 258 q 271 206 253 232 q 296 146 289 181 q 297 75 303 111 q 283 10 292 42 q 258 -53 274 -22 q 242 -83 251 -68 q 219 -107 233 -97 z "},"-":{"ha":669,"x_min":32,"x_max":640,"o":"m 242 250 q 179 248 210 249 q 118 250 149 247 q 100 253 108 251 q 83 257 92 254 q 54 278 67 263 q 41 309 46 288 q 34 355 36 331 q 32 402 32 379 q 32 439 32 425 q 38 481 32 463 q 47 503 40 492 q 65 521 54 514 q 92 531 78 528 q 119 535 106 533 q 165 539 143 536 q 210 543 188 542 q 322 549 267 546 q 435 549 378 551 q 497 547 467 547 q 557 540 526 546 q 599 525 579 536 q 628 485 621 511 q 635 438 635 461 q 638 390 636 414 q 640 347 639 369 q 631 306 640 325 q 613 287 625 294 q 588 276 600 279 q 476 260 533 261 q 361 256 419 258 q 301 252 331 253 q 242 250 272 251 z "},".":{"ha":325,"x_min":25,"x_max":299,"o":"m 274 56 q 203 2 247 19 q 115 -7 160 -15 q 57 33 79 1 q 51 40 54 35 q 31 78 38 57 q 26 122 25 100 q 54 197 31 163 q 98 237 71 221 q 153 256 125 253 q 211 252 181 258 q 263 226 242 246 q 288 190 279 211 q 297 144 296 168 q 292 97 299 121 q 274 56 286 74 z "},"/":{"ha":628,"x_min":14,"x_max":618,"o":"m 239 -50 q 211 -58 226 -58 q 181 -53 196 -58 q 115 -31 149 -42 q 50 -8 82 -19 q 28 6 39 -3 q 14 28 17 15 q 15 41 14 32 q 19 59 17 50 q 23 77 21 68 q 26 90 25 86 q 61 223 42 157 q 101 356 81 289 q 183 610 142 485 q 272 863 225 736 q 308 969 292 915 q 340 1076 324 1024 q 353 1112 343 1088 q 371 1143 363 1136 q 399 1153 382 1154 q 431 1149 415 1151 q 498 1133 465 1143 q 563 1110 531 1122 q 600 1086 582 1103 q 614 1050 618 1069 q 601 1007 610 1028 q 585 965 593 986 q 474 676 526 821 q 378 381 422 531 q 337 245 357 313 q 297 108 317 178 q 288 72 293 96 q 275 24 282 49 q 258 -21 268 0 q 239 -50 249 -42 z "},":":{"ha":350,"x_min":38,"x_max":313,"o":"m 286 608 q 216 555 260 572 q 128 547 172 538 q 96 560 111 550 q 69 586 81 571 q 64 593 67 588 q 44 632 50 610 q 39 675 38 654 q 67 750 43 715 q 110 790 83 774 q 165 808 138 806 q 224 806 193 813 q 275 779 254 799 q 300 742 292 764 q 310 697 308 721 q 305 650 311 674 q 286 608 299 626 m 286 189 q 217 135 261 153 q 129 128 172 118 q 96 141 111 131 q 69 167 81 151 q 64 174 67 172 q 44 213 50 190 q 40 256 38 235 q 67 331 43 296 q 110 370 83 354 q 167 390 138 386 q 224 387 194 393 q 275 361 254 381 q 301 324 292 346 q 311 278 310 301 q 306 231 313 254 q 286 189 300 207 z "},";":{"ha":367,"x_min":36,"x_max":329,"o":"m 304 608 q 234 555 278 572 q 146 547 190 538 q 114 560 129 550 q 88 586 99 571 q 82 593 85 588 q 61 632 68 610 q 57 675 54 654 q 85 750 61 715 q 128 790 101 774 q 183 808 156 806 q 242 806 211 813 q 293 779 272 799 q 318 742 310 764 q 328 697 326 721 q 323 650 329 674 q 304 608 317 626 m 231 -44 q 204 -52 219 -53 q 182 -37 189 -51 q 180 -24 179 -31 q 183 -11 181 -18 q 192 19 186 -1 q 201 60 197 40 q 165 53 183 54 q 126 56 146 51 q 68 94 92 63 q 65 99 65 97 q 63 101 64 100 q 42 140 49 118 q 38 183 36 163 q 65 258 42 224 q 109 298 82 282 q 164 318 136 314 q 235 308 206 322 q 282 269 264 294 q 307 208 300 243 q 308 138 314 174 q 294 73 303 106 q 269 10 285 40 q 253 -19 263 -6 q 231 -44 244 -33 z "},"<":{"ha":664,"x_min":28,"x_max":625,"o":"m 568 74 q 534 65 553 64 q 500 72 515 67 q 294 154 393 108 q 92 247 194 200 q 67 259 79 254 q 43 274 54 264 q 28 308 28 286 q 30 358 28 333 q 31 410 32 383 q 31 435 31 417 q 35 458 32 453 q 55 484 39 469 q 90 513 71 499 q 128 540 110 528 q 157 558 147 551 l 403 721 q 430 739 411 726 q 470 765 449 751 q 511 788 492 778 q 542 799 531 797 q 554 796 549 800 q 563 786 560 792 q 572 772 568 782 q 583 730 579 751 q 592 686 588 708 q 600 651 596 668 q 610 615 604 633 q 619 587 615 600 q 624 567 624 574 q 622 553 625 560 q 617 540 619 547 q 582 514 606 526 q 462 457 524 482 q 339 403 400 432 q 419 383 379 394 q 500 361 460 372 q 531 353 515 357 q 561 343 546 350 q 586 326 575 336 q 600 301 597 315 q 604 251 606 276 q 600 200 603 225 q 597 170 599 189 q 592 132 594 151 q 583 97 589 113 q 568 74 578 81 z "},"=":{"ha":640,"x_min":38,"x_max":603,"o":"m 301 458 q 220 458 261 458 q 139 461 179 458 q 119 461 129 461 q 100 464 110 461 q 60 481 74 467 q 46 515 49 494 q 44 541 44 524 q 44 577 43 558 q 46 613 44 596 q 51 636 47 629 q 96 668 64 663 q 158 672 128 674 q 221 671 189 671 q 295 674 258 672 q 369 675 332 676 q 508 667 439 675 q 551 660 529 664 q 585 640 572 656 q 596 615 592 632 q 601 579 600 599 q 602 542 603 560 q 600 514 601 524 q 592 492 597 503 q 575 474 586 481 q 547 465 563 465 q 515 463 531 464 q 409 459 463 460 q 301 458 356 458 m 296 171 q 215 171 256 171 q 133 174 174 171 q 113 174 122 175 q 93 176 103 174 q 72 182 82 178 q 54 193 61 186 q 39 228 42 206 q 38 253 39 236 q 38 290 38 271 q 39 325 38 308 q 44 349 40 342 q 90 381 57 376 q 151 385 121 386 q 214 385 182 385 q 289 387 251 385 q 364 389 326 389 q 433 385 399 388 q 503 379 468 383 q 544 373 522 376 q 578 354 567 369 q 589 328 585 346 q 594 292 593 311 q 595 256 596 274 q 593 226 594 238 q 585 204 590 215 q 569 186 581 193 q 540 178 556 179 q 510 175 525 176 q 403 172 457 172 q 296 171 349 171 z "},">":{"ha":664,"x_min":40,"x_max":638,"o":"m 165 72 q 130 65 149 67 q 97 74 111 64 q 81 97 88 81 q 72 132 75 113 q 68 170 69 151 q 65 200 67 189 q 60 251 63 225 q 64 301 58 276 q 78 326 67 315 q 103 343 90 336 q 134 353 118 350 q 165 361 150 357 q 245 383 206 372 q 325 403 285 394 q 202 457 264 432 q 82 514 140 482 q 64 526 72 519 q 49 540 56 532 q 40 567 40 553 q 44 587 40 574 q 54 615 49 600 q 64 651 60 633 q 72 686 68 668 q 81 730 76 708 q 92 772 85 751 q 103 786 96 781 q 111 796 106 792 q 124 799 117 800 q 153 788 133 797 q 194 765 174 778 q 234 739 215 751 q 261 721 253 726 q 385 640 324 681 q 508 558 446 599 q 536 540 518 551 q 574 513 554 528 q 609 484 593 499 q 629 458 625 469 q 633 435 632 453 q 633 410 633 417 q 635 358 633 383 q 636 308 636 333 q 622 274 638 289 q 598 259 611 264 q 572 247 585 254 q 372 154 471 200 q 165 72 272 108 z "},"?":{"ha":865,"x_min":21,"x_max":849,"o":"m 382 267 q 356 263 369 265 q 331 259 343 260 q 307 260 318 258 q 288 271 296 263 q 275 303 276 281 q 276 350 274 325 q 281 399 278 375 q 283 438 283 424 q 277 482 282 458 q 270 528 272 506 q 274 566 268 550 q 300 586 279 582 q 383 614 342 594 q 455 661 424 633 q 505 724 486 689 q 521 800 524 760 q 501 836 519 819 q 460 863 483 853 q 410 874 436 872 q 367 864 385 875 q 341 831 349 851 q 332 786 333 811 q 331 734 331 761 q 329 684 332 707 q 317 643 326 661 q 288 618 308 625 q 237 603 271 611 q 168 592 203 596 q 104 592 133 589 q 67 613 75 596 q 39 686 50 647 q 24 765 28 725 q 27 842 21 804 q 51 914 33 881 q 94 966 68 943 q 151 1006 119 989 q 219 1033 183 1022 q 288 1047 254 1043 q 436 1049 361 1057 q 578 1019 511 1042 q 701 960 646 997 q 792 876 757 924 q 838 768 828 828 q 826 640 849 708 q 780 552 811 594 q 707 476 749 510 q 617 422 665 443 q 518 394 568 400 q 513 378 515 394 q 509 343 511 363 q 506 307 507 324 q 504 289 506 290 q 482 274 497 278 q 449 268 467 269 q 413 267 431 267 q 382 267 394 268 m 401 -42 q 333 -31 363 -44 q 290 -10 311 -21 q 254 18 269 1 q 231 65 236 38 q 232 117 225 93 q 247 143 238 132 q 267 165 256 154 q 279 178 274 172 q 292 189 285 183 q 344 211 317 207 q 356 213 349 213 q 374 213 364 213 q 391 212 383 213 q 403 210 399 211 q 458 200 431 206 q 510 178 486 194 q 544 136 533 163 q 553 103 551 119 q 553 68 554 86 q 536 28 550 44 q 514 6 526 15 q 486 -11 501 -4 q 401 -42 447 -35 z "},"@":{"ha":1113,"x_min":46,"x_max":1069,"o":"m 560 -190 q 489 -192 524 -192 q 418 -189 454 -192 q 344 -174 381 -186 q 271 -146 307 -162 q 204 -104 235 -132 q 162 -56 181 -83 q 126 -1 143 -29 q 80 101 99 47 q 54 211 61 156 q 46 326 46 269 q 49 440 46 382 q 50 492 49 467 q 54 543 51 517 q 83 674 61 610 q 144 793 106 739 q 190 843 164 821 q 244 885 217 865 q 357 935 297 917 q 478 960 417 953 q 587 966 532 967 q 696 963 642 965 q 799 951 747 958 q 896 922 850 943 q 931 903 914 914 q 960 876 947 892 q 1004 808 986 844 q 1035 732 1022 771 q 1056 653 1047 693 q 1067 572 1064 613 q 1065 462 1069 517 q 1054 353 1060 407 q 1047 290 1051 321 q 1036 228 1043 258 q 1023 185 1031 206 q 1003 146 1015 164 q 926 92 972 107 q 835 78 889 79 q 738 93 781 76 q 703 103 721 94 q 668 125 685 113 q 638 153 651 138 q 617 182 624 168 q 615 184 615 183 q 614 186 615 185 q 551 108 588 140 q 517 83 536 94 q 478 69 499 72 q 388 81 432 61 q 321 143 344 101 q 311 163 315 153 q 304 185 307 174 q 282 302 286 242 q 286 421 278 363 q 302 485 292 453 q 331 544 313 517 q 384 605 351 578 q 456 642 417 632 q 533 639 493 650 q 607 608 574 628 l 619 600 q 631 643 622 624 q 663 658 640 663 q 679 652 671 656 q 696 646 688 649 q 712 638 700 643 q 736 628 724 633 q 760 618 749 622 q 778 613 772 614 q 793 592 799 610 q 790 574 793 585 q 786 558 788 563 q 767 447 775 503 q 758 335 760 392 q 758 316 758 328 q 760 291 758 304 q 763 267 761 278 q 769 250 765 256 q 782 243 772 246 q 803 241 790 242 q 828 241 815 240 q 853 244 842 242 q 872 251 865 247 q 888 274 882 258 q 895 308 893 289 q 897 345 897 326 q 894 376 896 364 q 857 614 888 497 q 845 650 851 632 q 828 683 839 668 q 760 747 803 722 q 672 781 717 771 q 603 788 638 788 q 535 785 569 788 q 465 771 499 781 q 399 744 431 761 q 353 712 375 731 q 314 672 332 693 q 277 619 292 649 q 251 557 263 589 q 224 435 229 499 q 221 310 218 372 q 237 188 224 249 q 282 75 250 126 q 351 7 310 33 q 409 -20 378 -11 q 472 -32 440 -29 q 663 -25 567 -42 q 715 -15 689 -21 q 767 -1 740 -8 q 783 2 774 1 q 800 -1 793 3 q 817 -15 814 -7 q 819 -31 819 -22 q 821 -46 819 -39 q 822 -58 821 -50 q 826 -76 824 -67 q 830 -94 828 -86 q 833 -106 832 -103 q 833 -131 840 -118 q 813 -149 826 -144 q 768 -160 790 -156 q 722 -171 746 -165 q 641 -186 682 -182 q 560 -190 600 -190 m 499 269 q 508 268 501 268 q 519 273 514 269 q 528 281 524 276 q 548 324 543 300 q 556 371 553 347 q 556 388 556 376 q 556 413 557 400 q 554 438 556 426 q 550 456 553 450 q 545 460 549 458 q 539 465 542 463 q 522 467 531 468 q 503 465 513 465 q 479 399 483 436 q 481 326 475 363 q 487 297 482 317 q 499 269 492 276 z "},"A":{"ha":964,"x_min":11,"x_max":951,"o":"m 725 -37 q 692 -39 710 -40 q 660 -28 674 -37 q 640 -3 646 -18 q 628 28 633 13 q 612 88 619 54 q 598 155 604 121 q 586 222 592 189 q 575 283 581 256 q 572 303 572 293 q 568 322 571 313 q 491 321 529 322 q 414 319 453 319 l 400 319 q 308 88 360 199 q 298 64 304 79 q 283 33 292 49 q 266 3 275 17 q 249 -14 257 -10 q 215 -17 233 -21 q 182 -7 197 -14 q 131 17 156 4 q 79 40 107 31 q 58 47 68 44 q 36 56 47 50 q 15 78 19 65 q 17 103 11 88 q 31 135 22 119 q 50 166 40 151 q 67 190 60 181 q 105 255 86 222 q 140 321 124 288 q 104 328 122 321 q 78 356 88 335 q 74 376 75 361 q 72 406 72 390 q 71 437 71 422 q 72 458 71 451 q 93 494 75 481 q 119 506 107 504 q 163 512 133 510 q 222 513 192 514 q 294 731 263 621 q 356 960 325 842 q 362 984 358 972 q 367 1008 365 996 q 385 1039 371 1029 l 393 1047 q 430 1058 404 1057 q 475 1057 456 1060 q 482 1058 478 1058 q 539 1062 500 1060 q 620 1063 578 1064 q 699 1056 663 1061 q 747 1039 735 1051 q 767 1003 763 1024 q 788 894 778 949 q 810 785 799 839 q 833 680 821 732 q 857 575 846 628 q 877 464 868 519 q 897 353 886 408 q 908 294 903 326 q 920 229 914 263 q 932 163 926 196 q 942 104 938 131 q 947 80 943 93 q 951 54 950 67 q 947 32 951 42 q 931 17 943 22 q 830 -19 882 -6 q 725 -37 778 -33 m 500 686 q 458 508 483 594 l 521 513 l 539 513 q 528 625 533 569 q 517 736 524 681 q 513 727 514 732 q 510 717 513 722 q 505 701 507 710 q 500 686 503 693 z "},"B":{"ha":999,"x_min":47,"x_max":965,"o":"m 218 -47 q 174 -42 197 -49 q 136 -19 150 -36 q 125 1 129 -10 q 117 22 121 11 q 86 153 96 86 q 69 286 76 219 q 60 392 64 339 q 51 499 56 446 q 49 628 47 564 q 53 758 50 693 q 60 858 56 808 q 67 956 64 907 q 69 987 68 971 q 72 1018 69 1003 q 103 1051 79 1042 q 129 1058 115 1057 q 158 1060 143 1058 q 247 1061 203 1063 q 335 1060 290 1060 q 358 1060 343 1060 q 388 1060 372 1061 q 418 1058 404 1060 q 439 1051 432 1056 q 452 1029 450 1044 q 451 1000 454 1014 q 449 985 450 993 q 447 968 447 976 q 486 985 467 978 q 526 1000 506 993 q 672 1024 596 1024 q 817 996 749 1024 q 888 949 856 981 q 936 878 921 918 q 953 781 954 832 q 938 682 953 729 q 895 608 925 642 q 829 551 865 575 q 811 540 822 547 q 786 524 800 532 q 806 517 796 522 q 853 489 832 507 q 892 449 875 471 q 928 392 913 422 q 954 329 943 361 q 965 264 964 297 q 956 200 965 231 q 905 101 940 147 q 821 29 869 56 q 617 -20 725 -24 q 411 28 508 -17 q 408 3 411 15 q 399 -21 406 -10 q 382 -32 392 -29 q 361 -36 372 -35 q 290 -43 325 -40 q 218 -47 254 -46 m 401 593 q 415 594 408 594 q 429 596 422 594 q 519 613 474 599 q 597 656 564 626 q 631 694 617 672 q 653 740 644 717 q 661 785 661 761 q 649 826 661 808 q 602 849 633 846 q 547 844 571 853 q 472 808 508 831 q 413 753 436 786 q 413 743 415 747 q 411 735 413 738 q 410 688 411 711 q 406 642 408 665 l 401 593 m 464 189 q 510 183 485 183 q 562 188 536 183 q 609 204 588 193 q 642 233 631 215 q 656 268 650 246 q 664 314 661 290 q 666 360 667 338 q 660 396 665 382 q 631 430 650 415 q 590 450 613 444 q 523 461 558 460 q 453 460 488 463 q 423 453 438 457 q 393 449 408 450 q 389 385 392 418 q 388 321 386 353 q 397 259 389 289 q 426 207 406 229 q 443 196 433 200 q 464 189 453 192 z "},"C":{"ha":868,"x_min":26,"x_max":835,"o":"m 786 122 q 653 3 736 40 q 480 -35 571 -35 q 303 -1 389 -35 q 164 94 218 33 q 67 269 100 165 q 30 483 33 372 q 52 699 26 593 q 132 885 78 806 q 258 1004 185 961 q 411 1059 332 1047 q 568 1052 490 1071 q 706 988 646 1033 q 800 873 765 943 q 829 710 835 803 q 815 672 828 683 q 783 656 803 660 q 740 653 764 651 q 689 656 715 654 q 644 655 668 657 q 607 668 621 653 q 596 690 603 674 q 582 726 589 707 q 569 762 575 744 q 560 786 564 779 q 521 821 544 813 q 473 823 497 829 q 426 797 449 817 q 390 750 403 778 q 360 642 369 707 q 352 506 351 576 q 363 370 353 436 q 394 261 374 304 q 423 221 406 238 q 461 198 440 204 q 503 196 482 192 q 546 217 525 200 q 578 260 568 236 q 594 311 588 285 q 606 363 600 338 q 625 411 613 389 q 681 424 646 419 q 749 425 715 428 q 808 409 783 422 q 833 367 833 396 q 832 319 833 349 q 826 254 831 289 q 812 184 821 219 q 786 122 803 149 z "},"D":{"ha":986,"x_min":53,"x_max":957,"o":"m 301 -56 q 238 -60 269 -60 q 176 -54 207 -61 q 122 -26 142 -47 q 98 15 107 -8 q 85 63 89 39 q 53 421 53 240 q 64 783 53 601 q 67 836 65 810 q 71 890 68 863 q 74 919 72 901 q 79 956 75 938 q 89 991 83 975 q 104 1014 94 1007 q 151 1032 126 1031 q 204 1041 178 1036 q 258 1044 231 1046 q 316 1040 288 1042 q 374 1038 344 1039 q 407 1025 393 1036 q 414 996 421 1014 q 410 977 413 992 q 407 958 408 963 q 403 935 404 947 q 401 910 403 922 q 508 974 450 947 q 628 1004 567 1001 q 724 993 675 1006 q 808 951 772 981 q 881 867 851 917 q 925 765 910 818 q 953 590 949 679 q 946 411 957 500 q 918 284 939 346 q 867 164 897 222 q 845 127 857 144 q 821 92 833 110 q 764 31 797 57 q 693 -15 731 4 q 644 -30 669 -26 q 594 -33 619 -33 q 528 -26 561 -33 q 465 -4 494 -19 q 435 10 450 3 q 406 28 419 18 q 399 3 403 15 q 388 -21 396 -10 q 349 -46 372 -39 q 301 -56 325 -53 m 436 188 q 488 171 460 168 q 538 194 515 174 q 578 253 564 221 q 636 482 624 361 q 631 721 649 603 q 622 754 628 738 q 606 785 617 771 q 565 817 589 808 q 519 819 546 824 q 457 788 485 815 q 415 729 429 761 q 401 671 408 713 q 389 576 394 629 q 382 462 383 522 q 385 347 381 401 q 402 249 390 292 q 436 188 414 207 z "},"E":{"ha":767,"x_min":50,"x_max":746,"o":"m 354 -22 q 249 -21 301 -22 q 146 -8 197 -19 q 106 8 125 -4 q 78 38 88 19 q 61 89 65 61 q 54 144 57 117 q 50 249 50 197 q 51 353 50 300 q 58 560 53 457 q 72 768 64 664 q 78 837 75 803 q 85 906 82 871 q 85 940 86 922 q 86 974 85 957 q 93 985 86 981 q 96 989 93 986 q 120 1003 101 996 q 147 1011 139 1010 q 198 1019 172 1017 q 249 1024 224 1021 q 385 1030 317 1029 q 521 1024 453 1031 q 601 1017 561 1021 q 679 1006 640 1014 q 710 997 694 1001 q 735 982 725 993 q 744 962 742 974 q 744 939 746 950 q 735 863 742 900 q 722 788 729 825 q 715 762 719 775 q 700 740 711 749 q 675 731 689 732 q 649 732 661 731 q 584 742 617 735 q 519 754 551 750 q 440 761 479 758 q 360 767 400 764 q 356 731 357 749 q 353 693 354 713 q 354 672 353 686 q 363 653 356 658 q 375 649 367 650 q 393 647 383 647 q 412 648 403 647 q 426 649 421 649 q 464 653 439 650 q 515 658 489 656 q 565 659 542 660 q 600 651 589 658 q 617 631 611 644 q 624 600 622 617 q 624 567 625 583 q 621 538 622 550 q 614 515 618 526 q 600 499 610 504 q 569 489 586 489 q 538 490 553 489 q 455 501 496 494 q 372 514 414 508 q 363 517 369 515 q 354 515 357 518 q 347 501 350 508 q 340 488 343 494 l 340 486 q 331 412 332 450 q 328 336 329 374 q 328 290 328 313 q 331 243 328 267 q 423 251 378 244 q 514 267 468 258 q 618 279 565 275 q 637 281 626 281 q 658 281 647 282 q 676 276 668 279 q 689 265 685 272 q 698 242 696 254 q 701 217 700 229 q 703 191 703 204 q 704 164 704 178 q 708 139 707 151 q 711 119 710 126 q 715 74 714 97 q 704 31 715 50 q 681 7 697 15 q 647 -4 664 -1 q 585 -12 615 -11 q 522 -14 554 -12 q 354 -22 439 -21 z "},"F":{"ha":756,"x_min":47,"x_max":742,"o":"m 246 -32 q 190 -33 218 -32 q 135 -31 163 -35 q 95 -1 104 -25 q 83 46 86 22 q 69 209 72 128 q 60 372 65 290 q 52 486 57 431 q 49 600 47 542 q 61 782 51 692 q 92 961 71 872 q 102 988 94 975 q 122 1007 110 1001 q 141 1013 132 1010 q 160 1018 150 1015 q 243 1029 201 1025 q 326 1036 285 1033 q 425 1040 375 1040 q 524 1040 475 1039 q 564 1042 538 1040 q 619 1042 590 1043 q 675 1039 649 1042 q 713 1029 701 1036 q 736 994 731 1018 q 742 957 742 975 q 740 919 742 939 q 738 877 740 903 q 731 826 736 851 q 719 776 726 800 q 701 739 713 753 q 673 720 690 726 q 639 715 656 714 q 601 721 619 717 q 564 726 583 725 q 454 734 508 731 q 344 733 400 738 q 344 713 344 726 q 342 683 343 699 q 342 654 342 668 q 342 633 342 640 q 344 621 343 629 q 349 610 346 613 q 363 607 353 607 q 378 608 372 607 q 469 615 424 611 q 560 618 514 618 q 578 618 569 618 q 597 617 588 618 q 615 610 606 615 q 628 599 624 606 q 636 567 633 586 q 638 529 639 549 q 632 491 636 510 q 621 461 628 472 q 592 436 613 446 q 558 428 576 429 q 524 428 540 426 q 447 436 485 431 q 369 443 408 442 q 366 415 367 429 q 365 386 365 401 q 366 270 365 328 q 378 154 367 213 q 383 128 379 146 q 391 92 388 111 q 397 55 394 72 q 396 29 399 38 q 379 1 392 11 q 311 -29 351 -22 q 279 -33 296 -33 q 246 -32 263 -33 z "},"G":{"ha":969,"x_min":28,"x_max":925,"o":"m 831 -28 q 806 -28 826 -28 q 763 -30 786 -29 q 719 -31 739 -31 q 696 -31 700 -31 q 672 -14 679 -28 q 669 14 669 -7 q 668 51 668 35 q 650 44 658 47 q 639 39 642 40 q 528 1 585 17 q 414 -15 472 -15 q 312 -2 363 -15 q 218 39 261 11 q 183 65 199 50 q 151 97 167 81 q 133 122 140 108 q 118 149 125 135 q 93 199 104 174 q 74 251 82 224 q 39 413 50 331 q 32 579 28 496 q 61 741 36 661 q 131 889 86 821 q 194 963 157 929 q 275 1014 231 996 q 383 1043 328 1035 q 496 1049 439 1051 q 552 1040 524 1046 q 606 1019 581 1033 q 638 994 624 1008 q 636 1037 636 1014 q 640 1068 636 1060 q 658 1082 644 1079 q 678 1083 664 1083 q 708 1081 692 1082 q 738 1077 724 1079 q 758 1075 751 1075 q 821 1071 790 1072 q 883 1067 851 1069 q 896 1062 890 1067 q 904 1050 901 1057 q 907 1038 907 1043 q 907 1025 907 1032 q 904 972 906 999 q 901 918 903 946 l 901 914 q 906 831 906 872 q 908 749 907 790 q 908 733 908 743 q 908 713 908 724 q 905 694 907 703 q 900 681 903 685 q 872 667 889 668 q 839 667 854 665 q 745 669 792 668 q 651 671 699 671 l 626 671 q 624 672 625 671 q 621 672 624 672 q 603 683 607 672 q 599 700 597 693 q 601 751 601 725 q 589 799 600 776 q 563 830 579 818 q 526 846 546 842 q 487 846 507 850 q 450 828 467 842 q 415 781 428 808 q 392 726 401 754 q 363 558 364 644 q 372 386 361 471 q 389 311 378 349 q 419 242 400 274 q 463 200 436 214 q 516 186 489 186 q 567 201 543 186 q 604 244 592 215 q 622 313 619 276 q 628 385 625 349 q 603 381 619 383 q 571 376 588 378 q 539 373 554 374 q 517 375 524 372 q 498 397 503 382 q 492 428 493 413 q 486 476 489 451 q 483 526 483 501 q 506 554 483 547 q 534 558 513 557 q 563 558 556 558 q 628 560 590 560 q 705 560 665 560 q 782 560 744 560 q 847 561 819 561 q 870 560 858 561 q 893 553 882 558 q 914 525 908 544 q 918 501 918 514 q 917 476 918 489 q 908 370 913 424 q 902 264 904 317 q 902 158 900 211 q 914 53 904 104 q 917 38 917 46 q 921 22 918 29 q 918 -3 925 10 q 897 -21 911 -15 q 865 -26 882 -28 q 831 -28 847 -25 z "},"H":{"ha":1053,"x_min":49,"x_max":1017,"o":"m 271 -24 q 231 -33 251 -28 q 192 -35 211 -37 q 169 -28 185 -35 q 149 -18 154 -22 q 135 -2 140 -11 q 124 18 129 7 q 113 49 117 33 q 106 81 110 65 q 75 258 86 168 q 58 438 64 347 q 51 619 53 529 q 49 800 49 710 q 49 880 49 840 q 53 958 49 919 q 55 980 53 964 q 60 1000 57 996 q 72 1017 64 1010 q 89 1028 81 1024 q 111 1034 100 1033 q 133 1035 122 1035 q 223 1033 178 1036 q 313 1026 268 1029 q 349 1022 331 1025 q 385 1013 368 1019 q 416 993 400 1007 q 431 963 432 979 l 431 960 q 434 917 436 939 q 429 872 432 894 q 428 774 426 824 q 432 674 429 724 q 433 627 433 650 q 433 581 432 604 q 492 595 463 589 q 550 604 521 601 q 599 608 575 607 q 647 613 624 610 q 644 664 644 638 q 642 704 643 690 q 638 835 639 771 q 640 967 636 900 q 646 997 642 982 q 661 1024 650 1013 q 708 1038 681 1039 q 758 1036 735 1038 q 844 1035 801 1035 q 929 1033 886 1036 q 974 1026 951 1032 q 1010 1001 997 1019 q 1016 975 1015 993 q 1015 938 1017 957 q 1009 899 1013 918 q 1004 871 1006 881 q 991 784 997 826 q 981 697 985 742 l 981 694 q 975 388 974 540 q 976 81 976 235 q 976 47 976 64 q 965 15 975 29 q 936 0 956 0 q 925 -4 933 -1 q 835 -19 881 -12 q 743 -25 789 -25 q 722 -23 732 -25 q 703 -14 711 -21 q 678 19 688 -3 q 666 60 669 39 q 660 101 663 81 q 649 259 651 181 q 647 417 647 338 q 574 407 611 410 q 500 400 536 404 q 471 394 485 397 q 442 389 457 392 q 443 376 443 382 q 443 367 443 371 q 448 274 447 319 q 451 181 449 228 q 453 128 453 154 q 450 76 453 103 q 440 42 447 60 q 419 15 433 25 q 386 0 404 4 q 349 -7 368 -4 q 310 -15 329 -11 q 271 -24 290 -19 z "},"I":{"ha":481,"x_min":50,"x_max":447,"o":"m 214 -25 q 181 -27 197 -25 q 146 -28 164 -29 q 124 -22 135 -26 q 106 -7 113 -18 q 101 7 103 -3 q 97 28 99 17 q 92 49 94 39 q 90 63 90 58 q 74 189 79 125 q 67 317 69 253 l 67 319 q 59 392 63 356 q 53 464 56 428 q 51 557 50 511 q 54 650 51 603 q 60 808 57 729 q 63 965 63 886 q 66 998 63 981 q 81 1025 69 1015 q 104 1036 88 1032 q 140 1043 121 1040 q 176 1047 158 1046 q 203 1047 193 1047 q 274 1048 239 1049 q 344 1046 308 1047 q 379 1044 361 1046 q 413 1038 397 1043 q 438 1024 428 1033 q 447 997 447 1014 q 444 945 447 971 q 438 893 440 919 q 402 506 414 699 q 396 117 390 313 q 398 86 397 101 q 399 56 399 71 q 395 31 397 43 q 386 7 393 18 q 358 -16 376 -8 q 322 -25 340 -24 q 268 -26 294 -28 q 214 -25 242 -25 z "},"J":{"ha":896,"x_min":14,"x_max":863,"o":"m 619 29 q 444 -40 536 -32 q 269 -12 351 -47 q 124 92 188 22 q 36 254 61 161 q 22 320 28 285 q 15 388 15 356 q 21 448 14 421 q 46 489 28 475 q 73 497 54 494 q 113 501 92 500 q 154 501 135 501 q 185 499 174 500 q 226 496 201 497 q 272 490 250 494 q 308 476 293 486 q 322 450 324 467 q 307 394 319 422 q 293 338 294 367 q 309 233 289 264 q 357 206 329 201 q 413 244 385 210 q 456 336 442 279 q 479 485 474 410 q 481 638 485 561 q 467 790 478 714 q 440 940 456 867 q 433 974 436 958 q 432 1001 431 990 q 442 1019 433 1013 q 469 1026 450 1025 q 569 1039 513 1029 q 678 1055 626 1049 q 770 1060 731 1061 q 819 1040 810 1058 q 851 885 839 974 q 862 701 863 797 q 848 505 861 604 q 806 316 835 406 q 731 151 776 226 q 619 29 685 76 z "},"K":{"ha":1028,"x_min":43,"x_max":1015,"o":"m 878 11 q 799 2 838 7 q 719 -3 760 -3 q 692 1 706 -3 q 668 14 678 4 q 658 27 664 17 q 644 50 651 38 q 632 74 638 63 q 624 90 626 86 q 577 170 600 131 q 522 243 554 210 q 478 282 501 264 q 431 317 454 300 q 432 306 432 311 q 432 297 432 301 q 437 223 435 260 q 442 150 439 186 q 444 110 443 131 q 443 71 444 90 q 431 28 443 44 q 399 10 419 14 q 368 6 383 7 q 338 4 353 6 q 244 1 290 1 q 151 4 199 0 q 134 7 143 6 q 118 15 125 8 q 106 33 110 22 q 99 54 101 43 q 78 137 88 96 q 63 219 69 178 q 46 453 43 336 q 58 689 49 571 q 67 776 63 733 q 78 864 71 819 q 82 897 79 876 q 89 939 85 917 q 99 979 93 961 q 115 1006 106 997 q 151 1021 131 1018 q 203 1027 178 1026 q 256 1025 229 1028 q 349 1019 303 1022 q 443 1010 396 1017 q 473 1001 458 1007 q 493 981 488 994 q 494 965 494 975 q 491 942 493 954 q 486 918 489 929 q 482 901 483 907 q 464 795 472 849 q 449 689 456 742 q 444 639 446 664 q 442 589 443 614 q 465 608 454 597 q 524 660 496 633 q 576 715 551 686 q 657 834 624 769 q 710 967 690 899 q 728 990 714 983 q 747 994 738 994 q 767 992 757 993 q 847 988 807 986 q 926 993 886 990 q 938 993 931 993 q 956 993 946 993 q 973 993 965 993 q 985 992 981 993 q 1006 977 997 988 q 1014 951 1014 967 q 1004 917 1015 933 q 983 885 993 900 q 953 830 968 857 q 922 775 938 803 q 811 635 876 697 q 726 563 771 596 q 638 497 682 531 q 608 477 622 486 q 581 458 594 468 q 627 433 604 446 q 671 404 650 419 q 713 372 693 389 q 751 338 732 356 q 801 289 776 314 q 844 236 825 264 q 892 163 871 200 q 931 85 913 125 q 937 54 938 72 q 925 26 936 36 q 903 16 915 18 q 878 11 890 14 z "},"L":{"ha":696,"x_min":44,"x_max":682,"o":"m 196 -25 q 158 -24 176 -25 q 124 -12 139 -24 q 105 6 113 -6 q 93 31 97 18 q 86 58 89 44 q 81 83 83 71 q 62 202 69 143 q 51 321 54 261 q 56 631 44 476 q 89 942 67 786 q 92 963 90 949 q 97 993 94 978 q 103 1022 100 1008 q 110 1042 106 1036 q 133 1059 118 1054 q 163 1067 149 1064 q 272 1073 217 1074 q 381 1057 328 1072 q 407 1049 390 1054 q 442 1038 424 1044 q 475 1023 460 1031 q 496 1007 490 1015 q 504 981 504 996 q 501 953 504 967 q 468 760 486 856 q 439 565 450 664 q 428 397 429 481 q 425 228 426 313 q 582 236 504 228 q 612 240 596 238 q 642 241 628 242 q 665 235 656 240 q 674 215 674 229 q 676 199 676 204 q 681 110 681 154 q 682 68 682 89 q 676 28 682 47 q 663 6 672 15 q 642 -10 653 -4 q 610 -17 626 -17 q 576 -18 593 -18 q 478 -18 528 -18 q 378 -19 428 -18 q 288 -23 333 -21 q 196 -25 242 -25 z "},"M":{"ha":1219,"x_min":38,"x_max":1168,"o":"m 349 -24 q 313 -31 338 -29 q 262 -34 289 -33 q 210 -33 235 -35 q 174 -32 186 -32 q 138 -26 156 -29 q 106 -14 121 -24 q 92 -1 99 -10 q 82 15 86 7 q 68 57 72 35 q 60 103 64 79 q 52 181 54 142 q 49 258 50 219 q 71 703 38 485 q 88 799 78 751 q 110 893 97 846 q 124 938 117 917 q 143 979 132 960 q 153 995 149 988 q 165 1008 158 1003 q 202 1029 181 1024 q 246 1036 224 1035 q 285 1038 260 1038 q 337 1036 310 1038 q 388 1031 364 1035 q 424 1018 413 1026 q 437 1000 429 1014 q 447 979 444 986 q 484 880 468 931 q 515 778 500 829 q 533 713 524 749 q 553 642 543 678 q 572 570 563 606 q 592 507 582 535 q 634 601 613 547 q 676 713 656 656 q 715 827 697 771 q 746 928 733 883 q 759 971 753 954 q 777 998 765 988 q 808 1015 789 1008 q 863 1025 828 1021 q 1015 1028 940 1036 q 1047 1024 1031 1026 q 1076 1010 1064 1021 q 1090 991 1085 1001 q 1100 969 1094 981 q 1112 935 1107 953 q 1121 900 1117 918 q 1157 657 1151 781 q 1165 410 1163 533 q 1167 247 1167 328 q 1161 82 1168 165 q 1154 21 1158 50 q 1118 -19 1150 -8 q 1024 -31 1075 -32 q 928 -31 972 -29 q 844 3 867 -32 q 828 100 822 38 q 833 254 835 181 q 833 408 831 328 q 835 499 835 454 q 833 589 836 544 q 833 611 833 600 q 831 633 832 622 q 785 498 803 567 q 749 358 768 429 q 737 318 743 339 q 715 285 731 297 q 684 269 701 272 q 649 265 667 267 q 616 263 629 264 q 590 260 603 261 q 565 260 578 258 q 533 265 551 261 q 491 283 507 272 q 465 306 475 293 q 448 337 454 319 q 435 375 442 354 q 415 437 426 401 q 393 508 404 472 q 371 576 382 543 q 350 633 360 610 q 349 585 350 613 q 349 529 349 558 q 349 472 349 500 q 350 425 349 444 q 356 308 353 367 q 365 190 360 250 q 374 117 369 154 q 376 43 378 81 q 370 5 376 25 q 349 -24 364 -15 z "},"N":{"ha":997,"x_min":56,"x_max":956,"o":"m 140 -19 q 113 -16 126 -21 q 93 0 100 -11 q 86 21 88 10 q 82 43 85 32 q 63 235 71 139 q 56 426 56 331 l 56 636 q 62 786 58 711 q 68 936 65 861 q 69 957 68 947 q 69 978 71 967 q 85 1015 68 1001 q 126 1032 103 1029 q 226 1034 175 1035 q 326 1031 276 1033 q 351 1029 336 1031 q 380 1024 365 1028 q 407 1016 394 1021 q 425 1003 419 1011 q 428 982 431 993 q 425 960 426 971 q 408 818 414 889 q 422 843 415 831 q 435 867 428 856 q 476 926 453 899 q 525 976 499 953 q 601 1021 558 1004 q 686 1039 643 1038 q 749 1030 718 1040 q 804 1000 779 1019 q 844 958 826 982 q 874 905 861 933 q 896 847 886 876 q 913 789 906 818 q 951 488 947 644 q 943 183 956 331 q 940 147 942 172 q 935 95 938 122 q 927 44 932 68 q 917 11 922 21 q 882 -10 903 -7 q 844 -8 863 -11 q 806 -3 825 -4 q 754 -3 779 -1 q 704 -7 729 -4 q 672 -9 693 -7 q 640 -7 651 -11 q 610 22 617 1 q 604 67 603 42 q 611 120 606 93 q 619 171 617 147 q 631 306 625 235 q 640 443 638 378 q 640 577 643 510 q 619 708 636 644 q 603 753 613 731 q 574 786 593 776 q 547 786 558 792 q 508 750 528 778 q 472 688 489 722 q 441 620 454 654 q 422 565 428 586 q 399 463 407 515 q 385 358 390 411 q 390 242 388 300 q 399 125 392 183 q 402 93 400 110 q 404 60 404 76 q 397 29 404 46 q 378 13 390 18 q 353 6 365 7 q 285 0 318 3 q 218 -7 251 -3 q 179 -15 199 -10 q 140 -19 160 -19 z "},"O":{"ha":1021,"x_min":29,"x_max":996,"o":"m 832 88 q 717 15 788 42 q 567 -22 646 -12 q 409 -22 488 -31 q 272 13 331 -12 q 165 86 210 39 q 91 194 121 133 q 47 324 61 254 q 31 466 32 393 q 40 611 29 539 q 71 747 50 683 q 174 929 106 854 q 328 1046 243 1004 q 508 1094 414 1088 q 690 1072 603 1101 q 845 975 776 1042 q 950 801 914 908 q 988 617 979 715 q 982 424 996 519 q 931 240 968 328 q 832 88 894 153 m 467 247 q 493 206 476 224 q 530 178 510 188 q 572 169 550 168 q 614 183 593 169 q 685 280 660 214 q 722 423 711 346 q 734 578 733 500 q 729 710 735 656 q 685 842 721 799 q 606 886 650 886 q 519 844 563 886 q 454 721 476 801 q 428 603 438 664 q 419 481 418 542 q 431 360 419 419 q 467 247 442 301 z "},"P":{"ha":944,"x_min":57,"x_max":932,"o":"m 210 -37 q 128 -24 171 -39 q 116 -15 121 -21 q 107 -1 111 -8 q 96 22 100 10 q 89 46 92 33 q 69 157 74 101 q 63 269 65 213 q 58 468 58 364 q 58 674 57 572 q 62 865 58 775 q 69 1022 65 956 q 74 1044 71 1033 q 86 1063 78 1056 q 120 1075 97 1071 q 169 1081 143 1079 q 219 1083 194 1083 q 256 1082 243 1083 q 292 1078 269 1081 q 340 1070 315 1075 q 385 1058 364 1065 q 414 1039 406 1050 q 421 1017 424 1029 q 415 988 418 1001 q 410 958 413 974 q 505 988 456 978 q 604 1006 554 999 q 746 997 685 1017 q 847 935 807 976 q 908 837 888 894 q 931 716 929 779 q 915 588 932 653 q 860 469 897 524 q 768 374 824 414 q 639 319 713 335 q 583 312 611 313 q 525 311 554 311 q 483 313 504 313 q 442 317 463 314 q 411 321 429 318 q 382 326 393 324 q 385 177 375 247 q 403 44 394 107 q 402 21 404 33 q 393 -3 400 8 q 379 -12 388 -10 q 361 -18 371 -15 q 286 -31 324 -25 q 210 -37 249 -36 m 428 486 q 488 482 456 478 q 549 501 519 486 q 601 542 578 517 q 632 601 624 568 q 636 717 644 658 q 626 763 633 740 q 606 803 619 785 q 577 826 594 817 q 539 838 560 835 q 498 840 518 842 q 461 833 478 839 q 434 819 447 828 q 414 797 421 811 q 383 715 396 764 q 369 619 371 667 q 381 533 368 571 q 428 486 394 496 z "},"Q":{"ha":1024,"x_min":29,"x_max":996,"o":"m 778 -154 q 756 -165 767 -160 q 733 -169 744 -169 q 709 -162 721 -169 q 690 -144 697 -154 q 674 -115 679 -131 q 661 -82 668 -99 q 649 -47 654 -64 q 638 -10 644 -29 q 541 -24 590 -21 q 444 -25 492 -28 q 352 -12 396 -22 q 272 13 308 -3 q 165 86 210 39 q 91 194 121 133 q 47 324 61 254 q 31 466 32 393 q 40 611 29 539 q 71 747 50 683 q 174 929 106 854 q 328 1046 243 1004 q 508 1094 414 1088 q 690 1072 603 1101 q 845 975 776 1042 q 950 801 914 908 q 987 626 978 719 q 984 441 996 533 q 940 263 972 349 q 851 111 907 178 q 874 76 863 93 q 899 44 886 60 q 926 12 911 28 q 949 -24 940 -4 q 949 -54 956 -40 q 931 -72 944 -62 q 900 -90 917 -81 q 867 -106 883 -99 q 843 -118 851 -114 q 810 -136 826 -126 q 778 -154 794 -146 m 467 247 q 515 188 483 211 q 582 171 547 164 q 548 258 564 214 q 515 346 532 301 q 511 358 513 353 q 510 369 510 363 q 519 397 507 385 q 536 408 524 401 q 563 422 549 415 q 589 433 576 428 q 608 442 601 439 q 624 445 615 444 q 639 443 632 446 q 653 433 647 440 q 664 417 660 425 q 685 381 675 399 q 707 346 696 364 q 724 441 718 392 q 733 539 731 490 q 733 632 735 588 q 729 710 732 676 q 685 842 721 799 q 606 886 650 886 q 519 844 563 886 q 454 721 476 801 q 428 603 438 664 q 419 481 418 542 q 431 360 419 419 q 467 247 442 301 z "},"R":{"ha":982,"x_min":49,"x_max":956,"o":"m 804 -35 q 716 -34 761 -44 q 631 -4 671 -24 q 564 38 594 13 q 511 94 533 63 q 476 167 488 128 q 454 247 464 207 q 450 265 453 253 q 444 291 447 278 q 436 317 440 304 q 429 333 432 329 q 411 346 424 342 q 389 347 399 350 q 388 319 389 332 q 388 299 388 307 l 388 140 q 389 112 388 131 q 390 72 390 93 q 389 33 390 51 q 383 7 388 15 q 366 -8 376 -3 q 344 -14 356 -12 q 303 -20 331 -17 q 247 -26 276 -24 q 190 -27 217 -28 q 151 -22 164 -26 q 132 -1 138 -17 q 122 31 126 15 q 75 247 90 136 q 53 469 60 357 q 49 611 50 540 q 51 753 49 682 q 56 842 54 797 q 60 931 57 886 q 62 949 61 940 q 61 965 63 957 q 63 987 61 976 q 72 1004 65 997 q 92 1017 81 1013 q 117 1024 104 1021 q 200 1032 158 1031 q 285 1036 242 1033 q 317 1036 300 1038 q 347 1029 333 1035 q 369 1014 361 1024 q 372 989 376 1004 q 373 980 372 986 q 374 971 374 974 q 373 944 374 957 q 372 915 372 931 q 413 950 392 935 q 458 976 435 965 q 524 997 490 992 q 592 1004 557 1001 q 682 1003 636 1007 q 771 982 728 999 q 824 956 799 971 q 868 919 849 942 q 918 840 900 885 q 946 747 936 794 q 950 638 956 694 q 925 532 944 582 q 896 478 914 504 q 857 432 878 453 q 787 380 825 401 q 707 347 749 358 q 667 341 688 342 q 626 339 646 340 q 682 293 650 314 q 778 252 726 264 q 883 235 831 240 q 910 226 896 233 q 926 204 924 218 q 922 163 928 189 q 907 110 917 138 q 887 58 897 83 q 869 21 876 33 q 842 -14 858 1 q 804 -35 825 -29 m 419 517 q 465 514 443 513 q 511 518 488 515 q 535 523 524 521 q 557 532 546 525 q 583 551 572 539 q 604 576 594 563 q 635 718 647 642 q 618 764 631 742 q 586 799 606 786 q 549 815 569 810 q 510 818 529 819 q 456 806 482 817 q 407 781 431 796 q 400 775 404 778 q 394 767 396 772 q 392 758 393 763 q 390 749 392 753 l 390 714 q 393 628 390 671 q 407 543 396 585 q 410 527 408 536 q 419 517 413 518 z "},"S":{"ha":835,"x_min":25,"x_max":819,"o":"m 457 -31 q 332 -22 396 -35 q 213 19 268 -10 q 113 91 157 47 q 47 192 69 135 q 42 265 33 229 q 94 317 51 301 q 160 331 126 328 q 225 336 193 335 q 258 333 240 336 q 283 317 276 329 q 294 278 294 299 q 296 239 293 258 q 302 216 299 228 q 315 196 306 204 q 338 183 325 186 q 367 176 351 179 q 415 185 394 174 q 438 221 435 197 q 424 290 442 260 q 378 343 407 319 q 313 387 350 367 q 242 426 276 407 q 147 490 190 454 q 76 569 104 525 q 36 667 47 614 q 40 785 25 721 q 110 919 58 867 q 235 997 163 972 q 397 1022 308 1022 q 578 997 486 1022 q 585 1023 583 1010 q 592 1049 588 1036 q 600 1063 594 1056 q 614 1075 606 1071 q 643 1078 625 1081 q 676 1073 654 1076 q 724 1065 699 1069 q 770 1056 749 1061 q 800 1046 792 1051 q 818 1022 814 1036 q 815 994 819 1013 q 804 955 811 975 q 790 916 797 935 q 779 888 782 897 q 751 783 760 836 q 735 676 742 729 q 733 658 733 667 q 729 640 732 649 q 703 618 722 621 q 690 617 699 617 q 671 619 681 618 q 653 622 661 621 q 640 624 644 624 q 604 628 622 626 q 569 638 586 631 q 544 661 549 644 q 542 685 542 672 q 540 710 542 697 q 537 748 540 724 q 525 796 533 772 q 504 837 517 819 q 475 856 492 854 q 420 838 439 858 q 399 788 401 818 q 409 724 397 757 q 444 669 421 692 q 509 615 475 642 q 575 561 543 589 q 647 506 607 535 q 711 444 686 476 q 751 387 733 417 q 776 325 768 357 q 775 194 793 256 q 712 84 757 132 q 601 6 667 36 q 457 -31 535 -25 z "},"T":{"ha":833,"x_min":14,"x_max":821,"o":"m 404 -33 q 349 -35 376 -33 q 294 -31 322 -36 q 275 -24 288 -29 q 258 -12 263 -18 q 247 9 250 -3 q 240 33 243 21 q 217 240 218 139 q 213 512 213 376 q 229 782 214 647 q 233 811 232 797 q 236 840 233 825 q 171 833 204 838 q 106 824 138 829 q 78 817 92 821 q 49 817 64 814 q 33 824 40 818 q 22 839 25 831 q 16 856 18 844 q 14 881 14 868 q 15 907 14 894 q 15 926 15 919 q 15 956 15 942 q 17 986 14 971 q 25 1007 18 994 q 39 1022 32 1019 q 96 1035 65 1036 q 156 1033 126 1035 q 460 1028 310 1025 q 769 1032 610 1032 q 815 1017 810 1032 q 811 967 821 1003 q 801 913 804 942 q 793 859 799 883 q 779 819 788 835 q 754 803 771 803 q 651 806 701 803 q 549 813 601 810 q 560 663 556 744 q 574 514 564 582 q 610 283 589 397 q 657 54 632 168 q 660 28 660 42 q 651 3 660 14 q 628 -12 643 -8 q 599 -18 613 -15 q 501 -31 550 -28 q 404 -33 453 -33 z "},"U":{"ha":990,"x_min":39,"x_max":947,"o":"m 799 -21 q 746 -22 772 -22 q 693 -15 719 -22 q 663 -3 678 -12 q 636 19 647 6 q 616 58 622 38 q 607 101 610 79 q 606 112 606 107 q 604 122 606 117 q 597 111 603 119 q 542 52 575 78 q 472 13 510 26 q 340 1 410 -10 q 217 51 271 11 q 158 106 185 75 q 113 172 132 138 q 54 331 69 247 q 39 499 39 414 q 48 671 39 585 q 64 840 57 757 q 67 876 65 851 q 73 928 69 901 q 82 978 76 956 q 96 1010 88 1001 q 124 1028 107 1022 q 158 1039 142 1033 q 201 1048 179 1046 q 244 1050 222 1050 q 326 1051 285 1051 q 407 1036 368 1050 q 431 1023 419 1031 q 447 1003 443 1015 q 451 989 450 996 q 451 975 451 982 q 433 840 446 913 q 414 704 421 767 q 398 596 408 650 q 380 487 388 542 q 371 377 372 432 q 381 268 369 322 q 389 232 383 250 q 407 203 394 214 q 436 191 421 190 q 466 200 451 192 q 494 223 481 208 q 517 253 507 238 q 552 324 539 286 q 576 401 565 363 q 616 588 603 493 q 632 779 629 683 q 632 830 633 807 q 630 875 631 853 q 630 920 629 897 q 635 971 631 943 q 642 1006 638 988 q 658 1035 646 1024 q 681 1043 668 1043 q 707 1046 694 1043 q 801 1058 758 1053 q 883 1047 843 1064 q 908 1033 896 1042 q 926 1010 919 1024 q 935 978 933 994 q 938 946 938 961 q 931 871 936 908 q 924 796 926 833 q 913 488 908 642 q 936 179 917 333 q 943 119 939 149 q 943 58 947 89 q 935 31 940 44 q 918 8 929 18 q 892 -7 907 -3 q 864 -14 878 -11 q 831 -18 847 -17 q 799 -21 815 -19 z "},"V":{"ha":972,"x_min":13,"x_max":947,"o":"m 482 -25 q 435 -31 464 -28 q 376 -35 407 -35 q 319 -33 346 -36 q 279 -17 293 -29 q 266 -1 271 -10 q 258 18 261 7 q 229 125 243 71 q 200 232 215 179 q 169 335 185 285 q 138 439 153 386 q 110 548 122 493 q 82 657 97 603 q 53 763 68 710 q 26 869 38 815 q 19 894 24 881 q 14 919 15 907 q 16 940 13 931 q 31 957 19 950 q 232 1026 125 1007 q 266 1029 249 1029 q 299 1021 283 1029 q 320 997 313 1013 q 333 967 328 982 q 369 859 356 914 q 399 749 383 804 q 424 655 411 701 q 444 560 436 608 q 466 430 456 494 q 489 300 476 365 l 493 321 q 497 337 496 329 q 501 353 499 344 q 529 524 513 439 q 567 692 546 608 q 605 828 585 761 q 651 963 625 896 q 660 987 654 971 q 672 1019 665 1003 q 687 1050 679 1036 q 703 1068 694 1064 q 736 1074 718 1076 q 771 1065 754 1071 q 824 1044 799 1057 q 876 1025 849 1032 q 899 1020 888 1022 q 921 1013 910 1018 q 934 1005 928 1010 q 943 993 940 1000 q 943 967 947 982 q 931 935 939 951 q 915 902 924 918 q 900 876 906 886 q 816 706 854 793 q 742 532 778 619 q 706 443 724 488 q 671 354 688 399 q 630 219 646 288 q 601 82 614 151 q 593 33 594 56 q 578 1 590 10 l 569 -7 q 533 -22 558 -18 q 489 -24 508 -25 q 482 -25 485 -24 z "},"W":{"ha":1300,"x_min":36,"x_max":1267,"o":"m 1206 207 q 1128 85 1175 138 q 1026 2 1082 33 q 908 -40 969 -29 q 790 -35 847 -50 q 683 19 732 -21 q 600 126 633 58 q 506 8 567 44 q 377 -24 446 -28 q 242 22 308 -21 q 131 139 175 64 q 58 326 79 225 q 36 531 36 426 q 55 742 36 636 q 103 943 74 847 q 108 957 104 947 q 117 977 113 967 q 124 997 121 988 q 126 1011 126 1007 q 133 1028 125 1024 q 154 1031 142 1032 q 182 1027 167 1031 q 210 1021 197 1024 q 293 1001 250 1010 q 368 978 336 993 q 415 941 400 964 q 417 879 431 918 q 351 638 372 763 q 338 386 329 513 q 352 306 340 346 q 382 242 364 267 q 424 215 400 218 q 472 244 447 213 q 525 343 510 293 q 543 446 540 393 q 542 555 546 499 q 542 672 539 611 q 556 709 543 693 q 589 737 569 725 q 631 756 608 749 q 674 767 654 764 q 713 772 689 769 q 763 773 738 774 q 811 767 789 772 q 844 751 833 763 q 856 727 853 743 q 858 692 858 711 q 855 656 857 674 q 851 626 853 638 q 849 542 849 590 q 853 446 849 494 q 870 353 858 397 q 904 281 882 310 q 968 239 940 233 q 1015 300 996 244 q 1031 384 1026 335 q 1032 490 1035 433 q 1022 608 1029 547 q 1003 726 1014 669 q 979 833 993 783 q 951 915 965 882 q 937 949 944 932 q 932 985 929 967 q 955 1012 933 1000 q 1004 1033 976 1024 q 1060 1047 1032 1042 q 1103 1057 1088 1053 q 1145 1051 1128 1063 q 1175 1019 1163 1040 q 1195 972 1188 999 q 1210 919 1203 944 q 1246 742 1231 833 q 1264 558 1261 650 q 1253 378 1267 467 q 1206 207 1240 289 z "},"X":{"ha":924,"x_min":8,"x_max":908,"o":"m 228 -35 q 213 -46 221 -42 q 193 -51 204 -50 q 162 -45 182 -51 q 120 -30 142 -39 q 78 -11 99 -21 q 49 3 58 -1 q 19 28 31 11 q 17 63 8 44 q 27 75 21 69 q 39 88 33 81 q 100 162 71 124 q 160 239 129 200 q 209 303 185 271 q 257 369 233 336 q 292 425 275 397 q 325 481 310 453 q 245 601 289 544 q 157 717 201 658 q 130 753 143 735 q 103 789 117 771 q 88 812 96 799 q 73 840 79 825 q 64 868 67 854 q 67 892 61 882 q 90 918 74 907 q 173 983 132 950 q 258 1042 214 1015 q 294 1060 275 1053 q 333 1065 314 1068 q 361 1050 344 1064 q 385 1028 378 1036 q 447 942 417 985 q 504 854 476 899 q 524 824 514 839 q 542 792 533 808 q 602 913 572 853 q 672 1028 632 974 q 693 1051 682 1040 q 719 1065 704 1063 q 735 1066 726 1068 q 751 1061 744 1064 q 783 1042 768 1054 q 813 1019 797 1029 q 831 1008 818 1017 q 858 990 844 1000 q 884 970 872 979 q 900 956 896 961 q 908 933 908 946 q 901 910 908 921 q 881 888 893 897 q 857 868 868 879 q 803 819 829 844 q 753 765 778 793 q 701 710 726 738 q 654 650 676 682 q 652 647 653 647 q 650 643 651 646 q 651 640 650 640 q 709 515 678 576 q 772 391 740 453 q 832 266 803 329 q 883 138 861 203 q 889 119 886 128 q 893 99 892 110 q 885 69 896 82 q 872 55 879 61 q 856 43 864 49 q 798 11 828 25 q 736 -14 768 -3 q 688 -31 713 -24 q 636 -37 663 -37 q 606 -24 619 -37 q 583 6 592 -10 q 499 162 539 85 q 421 322 460 239 q 411 307 415 314 q 404 296 407 300 q 367 238 385 267 q 335 178 350 208 q 297 97 314 138 q 260 15 279 56 q 246 -11 253 1 q 228 -35 239 -24 z "},"Y":{"ha":986,"x_min":14,"x_max":975,"o":"m 540 -17 q 449 -18 494 -17 q 358 -14 403 -19 q 328 -6 343 -11 q 301 10 313 -1 q 284 30 290 18 q 275 54 278 42 q 272 92 271 74 q 275 131 272 111 q 291 276 281 204 q 311 422 301 349 q 298 435 304 428 q 289 446 292 442 q 147 638 206 535 q 44 849 89 740 q 24 904 33 876 q 14 960 14 932 q 39 1010 14 989 q 99 1042 64 1032 q 167 1060 133 1051 q 208 1070 188 1065 q 250 1078 229 1075 q 285 1079 267 1081 q 318 1069 303 1078 q 343 1049 333 1063 q 360 1024 353 1036 q 378 985 371 1004 q 393 946 385 965 q 444 826 417 885 q 503 710 471 767 q 526 669 514 689 q 553 631 539 650 q 601 740 576 686 q 654 847 626 794 q 701 938 678 893 q 753 1025 724 983 q 783 1058 765 1043 q 825 1078 801 1072 q 876 1076 850 1083 q 924 1057 901 1068 q 946 1044 935 1050 q 964 1026 957 1038 q 972 993 975 1011 q 963 964 969 978 q 949 936 956 950 q 913 882 931 908 q 875 828 894 856 q 767 646 817 739 q 678 456 717 553 q 685 404 685 432 q 686 358 685 376 q 700 239 692 299 q 724 121 708 179 q 735 81 729 101 q 740 40 740 61 q 713 0 740 15 q 678 -9 701 -6 q 628 -14 654 -12 q 577 -16 601 -15 q 540 -17 553 -17 z "},"Z":{"ha":782,"x_min":18,"x_max":767,"o":"m 378 -28 q 256 -35 317 -31 q 136 -31 196 -39 q 99 -23 117 -28 q 65 -7 81 -18 q 56 1 60 -4 q 49 10 53 6 q 29 43 36 22 q 20 88 22 64 q 21 137 18 113 q 28 178 24 161 q 68 274 42 225 q 178 460 121 369 q 297 642 236 550 q 368 747 332 694 q 436 854 404 799 q 346 842 390 849 q 257 828 301 836 q 174 815 215 821 q 90 811 132 808 q 74 814 82 813 q 60 822 67 815 q 49 853 49 833 q 50 890 49 872 q 52 940 51 915 q 61 989 53 965 q 79 1015 67 1004 q 106 1029 92 1025 q 143 1033 125 1033 q 181 1033 161 1033 q 266 1035 224 1033 q 351 1035 308 1038 q 392 1034 371 1033 q 433 1035 413 1035 q 536 1035 485 1033 q 639 1036 588 1038 q 714 1018 682 1033 q 755 979 743 1003 q 766 928 767 956 q 756 872 765 900 q 732 822 746 844 q 649 681 694 760 q 559 521 604 603 q 472 360 514 439 q 394 215 429 281 q 384 198 392 210 q 376 181 376 186 q 375 176 375 179 q 389 174 379 174 q 410 176 399 175 q 431 178 421 176 q 446 181 440 181 q 569 190 500 188 q 693 194 638 192 q 722 188 707 194 q 743 169 736 182 q 749 142 747 161 q 752 103 751 124 q 752 62 753 82 q 750 32 751 42 q 747 13 749 22 q 738 -4 744 3 q 703 -25 725 -19 q 664 -29 686 -29 q 619 -28 642 -29 q 574 -24 596 -26 q 535 -21 551 -21 q 513 -21 526 -21 q 486 -19 500 -21 q 432 -24 458 -21 q 378 -28 406 -26 z "},"[":{"ha":483,"x_min":57,"x_max":467,"o":"m 424 -103 q 366 -105 401 -106 q 308 -103 331 -104 q 233 -102 271 -100 q 157 -103 194 -104 q 120 -99 139 -101 q 88 -83 101 -96 q 79 -78 83 -81 q 72 -68 75 -75 q 64 -44 65 -57 q 61 -18 63 -32 q 58 78 58 31 q 60 174 57 125 q 64 272 61 222 q 67 369 67 321 l 67 700 q 66 828 67 764 q 68 956 65 892 q 69 977 68 963 q 71 1008 69 992 q 74 1039 72 1025 q 81 1060 76 1053 q 114 1081 90 1078 q 187 1083 150 1085 q 261 1082 224 1082 q 340 1081 301 1081 q 418 1079 378 1082 q 433 1076 425 1078 q 447 1071 440 1075 q 457 1059 454 1067 q 461 1044 460 1051 q 464 997 464 1026 q 451 957 464 968 q 430 948 444 950 q 399 945 415 946 q 366 946 382 944 q 340 947 350 947 q 340 894 339 921 q 343 842 342 868 q 344 671 346 756 q 342 500 342 586 q 334 283 340 392 q 332 67 328 175 q 333 58 332 60 q 384 49 358 50 q 436 46 410 49 q 458 31 450 43 q 463 -13 467 15 q 456 -60 458 -42 q 448 -90 453 -79 q 424 -103 443 -100 z "},"\\":{"ha":571,"x_min":-43,"x_max":561,"o":"m 393 -53 q 363 -58 379 -58 q 336 -50 347 -58 q 316 -21 325 -42 q 299 24 307 0 q 286 72 292 49 q 278 108 281 96 q 238 245 258 178 q 196 381 217 313 q 99 676 151 531 q -11 965 47 821 q -26 1007 -18 986 q -40 1050 -35 1028 q -25 1086 -43 1069 q 13 1110 -7 1103 q 77 1133 44 1122 q 143 1149 110 1143 q 175 1153 158 1151 q 203 1143 192 1154 q 221 1112 211 1136 q 233 1076 231 1088 q 267 969 251 1024 q 301 863 282 915 q 391 610 349 736 q 474 356 433 485 q 549 90 514 226 q 552 77 550 86 q 556 59 554 68 q 560 41 558 50 q 560 28 561 32 q 547 6 557 15 q 524 -8 536 -3 q 459 -31 492 -19 q 393 -53 426 -42 z "},"]":{"ha":483,"x_min":19,"x_max":426,"o":"m 371 -101 q 297 -106 333 -107 q 222 -103 260 -104 q 144 -103 183 -103 q 65 -100 106 -103 q 51 -99 58 -100 q 36 -92 43 -97 q 22 -67 25 -85 q 20 -45 21 -58 q 20 -19 19 -32 q 23 6 21 -6 q 32 22 25 17 q 54 30 39 28 q 86 33 69 32 q 119 33 103 33 q 143 32 135 32 q 143 84 144 58 q 140 138 142 110 q 140 308 138 224 q 143 478 142 393 q 149 696 143 588 q 151 913 156 804 q 151 917 151 914 q 150 921 151 919 q 100 929 126 929 q 49 933 74 929 q 25 947 33 936 q 20 966 21 954 q 21 991 19 978 q 24 1017 22 1004 q 28 1038 26 1029 q 36 1067 31 1057 q 60 1081 42 1078 q 117 1083 82 1085 q 176 1081 153 1082 q 251 1081 214 1079 q 326 1081 289 1082 q 363 1077 344 1081 q 396 1063 382 1074 q 404 1056 400 1058 q 411 1047 408 1053 q 419 1023 418 1036 q 422 997 421 1010 q 426 901 425 949 q 425 804 426 853 q 419 707 422 756 q 417 610 417 658 l 417 278 q 417 151 417 214 q 415 24 418 88 q 415 1 415 17 q 413 -30 414 -14 q 409 -60 411 -46 q 404 -81 407 -75 q 390 -95 399 -90 q 371 -101 381 -100 z "},"^":{"ha":661,"x_min":19,"x_max":643,"o":"m 553 458 q 506 456 529 457 q 460 456 483 454 q 442 458 451 457 q 424 463 433 460 q 403 476 413 467 q 388 496 394 485 q 369 542 376 518 q 357 592 363 567 q 344 654 350 624 q 331 717 338 685 q 310 628 321 672 q 288 540 300 585 q 279 510 285 525 q 263 483 274 494 q 215 460 246 463 q 174 458 194 457 q 135 460 154 458 q 89 464 111 461 q 46 476 67 467 q 39 479 44 476 q 19 508 19 486 q 23 525 19 517 q 31 540 26 533 q 126 748 85 642 q 197 964 167 854 q 204 984 200 969 q 211 1003 208 999 q 251 1022 225 1022 q 267 1021 256 1022 q 291 1019 278 1019 q 316 1017 304 1018 q 335 1014 328 1015 q 379 1020 354 1019 q 417 1019 404 1021 q 442 1009 429 1018 q 456 988 454 1000 q 457 980 456 983 q 460 972 458 976 q 475 920 468 946 q 492 869 482 894 q 553 704 519 785 q 628 544 588 624 q 638 522 633 533 q 640 499 643 510 q 635 488 639 492 q 625 479 631 483 q 592 463 611 467 q 553 458 572 458 z "},"_":{"ha":750,"x_min":13,"x_max":736,"o":"m 224 -211 q 157 -213 190 -212 q 90 -208 124 -214 q 64 -203 76 -207 q 42 -189 51 -199 q 27 -169 32 -181 q 19 -144 22 -157 q 13 -80 13 -112 q 17 -15 14 -47 q 22 13 18 0 q 32 42 26 26 q 45 61 36 53 q 65 75 54 69 q 90 82 72 79 q 127 88 107 85 q 165 92 147 90 q 190 94 182 94 q 303 101 247 99 q 417 97 360 103 q 492 93 454 93 q 575 93 533 90 q 658 93 617 96 q 689 86 674 92 q 711 68 704 81 q 726 30 722 51 q 732 -12 729 8 q 736 -106 736 -58 q 735 -131 736 -118 q 726 -156 733 -144 q 710 -174 721 -167 q 689 -186 700 -181 q 648 -198 669 -194 q 604 -203 626 -201 q 502 -205 553 -206 q 400 -206 451 -204 q 312 -208 356 -207 q 224 -211 268 -210 z "},"a":{"ha":904,"x_min":22,"x_max":879,"o":"m 525 92 q 423 12 481 42 q 306 -24 365 -18 q 190 -8 246 -29 q 94 65 135 13 q 43 171 60 111 q 24 295 26 231 q 34 425 22 360 q 67 548 46 490 q 118 651 89 606 q 182 724 147 697 q 269 762 224 754 q 360 759 314 769 q 449 724 406 749 q 528 663 492 699 q 535 692 531 676 q 547 722 539 708 q 564 746 554 736 q 588 758 574 756 q 673 773 626 767 q 760 776 719 779 q 832 754 801 772 q 871 696 863 736 q 873 608 879 661 q 855 494 867 554 q 830 370 843 433 q 813 252 817 307 q 817 156 808 197 q 856 96 825 114 q 874 74 869 88 q 874 47 878 61 q 858 22 869 33 q 832 3 847 10 q 742 -20 789 -15 q 653 -15 696 -25 q 577 22 611 -4 q 525 92 543 47 m 392 183 q 433 166 413 154 q 472 211 454 178 q 501 289 489 244 q 517 369 513 333 q 510 518 526 461 q 467 588 493 575 q 413 567 440 601 q 375 440 386 532 q 370 383 372 419 q 369 308 368 347 q 376 235 371 269 q 392 183 381 200 z "},"b":{"ha":867,"x_min":13,"x_max":846,"o":"m 292 -46 q 223 -46 257 -47 q 156 -42 189 -44 q 132 -40 150 -42 q 108 -36 114 -39 q 92 -24 100 -33 q 85 -3 85 -14 q 88 67 85 33 q 92 136 90 101 q 99 310 96 224 q 101 485 103 397 q 90 636 100 561 q 64 786 81 711 q 49 846 57 817 q 32 904 40 875 q 26 926 31 908 q 19 947 21 943 q 32 993 13 975 q 76 1011 51 1011 q 145 1019 111 1011 q 213 1032 179 1026 q 262 1037 238 1035 q 311 1038 286 1039 q 342 1035 326 1036 q 372 1028 357 1033 q 385 1022 379 1025 q 396 1013 392 1019 q 404 1000 399 1010 q 410 986 410 990 q 410 972 411 979 q 411 957 410 964 q 417 888 414 922 q 418 817 419 853 q 414 692 418 754 q 419 698 417 694 q 425 704 422 701 q 457 735 440 721 q 493 760 474 750 q 613 785 556 789 q 717 751 671 781 q 796 669 764 721 q 838 554 828 618 q 843 512 840 533 q 846 468 846 490 q 822 303 846 385 q 758 150 799 221 q 685 56 729 97 q 588 -6 640 15 q 532 -15 561 -17 q 475 -11 503 -14 q 406 8 440 -7 q 386 17 396 13 q 367 29 376 22 q 346 -25 363 -3 q 320 -40 335 -36 q 292 -46 306 -44 m 353 272 q 353 238 353 256 q 358 206 354 219 q 371 183 363 192 q 394 179 379 175 q 427 197 413 183 q 453 225 442 210 q 472 253 464 238 q 486 283 479 268 q 508 335 496 301 q 530 405 519 368 q 548 476 540 442 q 558 533 556 511 q 558 536 558 535 q 557 540 557 538 q 547 585 554 563 q 519 606 540 608 q 467 575 489 601 q 428 515 447 554 q 392 433 408 476 q 365 346 376 389 q 353 272 354 303 z "},"c":{"ha":710,"x_min":17,"x_max":699,"o":"m 558 8 q 433 -26 501 -18 q 298 -24 364 -35 q 176 19 232 -12 q 86 104 119 51 q 31 251 46 169 q 26 417 17 333 q 71 575 36 500 q 163 700 106 650 q 294 774 221 753 q 439 787 367 796 q 576 740 511 778 q 682 635 640 701 q 688 580 699 610 q 656 529 678 550 q 605 503 633 508 q 557 521 576 497 q 484 581 519 567 q 419 588 449 596 q 370 553 390 579 q 343 490 350 526 q 332 410 336 461 q 331 310 328 360 q 347 219 335 260 q 389 169 360 179 q 459 169 428 156 q 516 203 490 183 q 565 241 542 224 q 611 250 588 258 q 666 203 654 236 q 667 134 678 171 q 628 62 657 97 q 558 8 599 26 z "},"d":{"ha":944,"x_min":18,"x_max":933,"o":"m 396 3 q 337 -23 368 -12 q 274 -33 306 -33 q 189 -21 232 -33 q 114 24 146 -8 q 63 98 83 56 q 32 185 43 140 q 19 263 21 224 q 21 343 18 303 q 32 425 22 382 q 51 485 39 457 q 79 540 64 513 q 119 601 97 572 q 167 654 142 629 q 210 688 186 674 q 258 706 233 703 q 301 708 276 708 q 353 706 326 708 q 407 696 381 703 q 456 678 433 689 q 447 774 450 726 q 442 868 444 821 q 440 893 442 878 q 439 925 439 908 q 441 956 439 942 q 449 976 443 969 q 472 988 456 985 q 506 994 488 992 q 542 996 525 996 q 571 996 560 996 q 763 996 667 1000 q 792 994 778 996 q 819 988 806 993 q 849 960 840 978 q 859 928 857 944 q 858 894 861 911 q 847 829 854 861 q 833 765 840 797 q 808 629 818 697 q 792 492 799 561 q 783 358 785 425 q 793 224 781 290 q 801 192 794 211 q 815 151 807 172 q 833 113 824 131 q 851 88 842 94 q 867 84 858 82 q 885 89 876 86 q 913 88 901 94 q 929 69 925 81 q 929 44 933 57 q 908 25 925 32 q 889 19 903 22 q 826 -1 857 8 q 763 -18 794 -11 q 671 -21 714 -25 q 637 -14 654 -19 q 606 3 619 -8 q 585 24 594 13 q 568 49 576 36 q 535 122 546 86 q 470 57 504 88 q 396 3 436 26 m 375 192 q 422 209 399 188 q 456 254 444 231 q 485 333 469 285 q 506 428 501 382 q 496 511 510 475 q 438 553 482 547 q 424 554 431 553 q 410 553 417 556 q 381 535 393 550 q 360 499 368 519 q 346 455 351 478 q 338 414 340 432 q 333 275 325 344 q 338 251 335 264 q 345 225 340 238 q 358 203 350 213 q 375 192 365 193 z "},"e":{"ha":683,"x_min":13,"x_max":668,"o":"m 638 144 q 557 49 610 85 q 440 0 504 13 q 306 -2 375 -12 q 179 43 238 8 q 74 145 113 83 q 24 278 35 207 q 28 422 13 349 q 85 561 44 496 q 182 668 124 624 q 308 734 240 713 q 447 751 375 756 q 585 710 518 747 q 650 637 632 682 q 661 542 668 592 q 625 444 654 492 q 550 365 596 396 q 508 347 538 357 q 447 329 479 338 q 383 315 414 321 q 338 308 353 310 q 349 210 338 250 q 390 155 361 171 q 464 151 418 139 q 579 210 510 164 q 607 216 593 219 q 630 201 621 213 q 642 175 639 190 q 638 144 644 160 m 392 643 q 356 609 368 635 q 338 551 343 583 q 330 485 332 518 q 325 428 328 451 q 367 442 350 428 q 394 476 383 456 q 408 522 404 497 q 414 571 413 547 q 415 594 414 581 q 413 620 415 608 q 406 639 411 632 q 392 643 401 646 z "},"f":{"ha":739,"x_min":14,"x_max":715,"o":"m 349 -201 q 308 -203 333 -204 q 255 -198 282 -203 q 203 -185 228 -193 q 167 -165 179 -176 q 149 -137 157 -157 q 144 -103 142 -117 q 157 -69 147 -85 q 171 -36 167 -54 q 176 49 178 6 q 172 136 175 92 q 169 184 171 160 q 165 232 168 208 q 144 231 154 231 q 128 231 135 231 q 92 230 110 229 q 57 238 75 231 q 24 267 35 244 q 15 293 17 279 q 14 322 14 307 q 15 344 14 331 q 17 374 15 358 q 23 402 19 389 q 31 422 26 415 q 52 435 38 432 q 83 438 67 439 q 115 434 99 438 q 143 428 132 431 q 144 426 143 426 q 136 567 138 497 q 151 704 135 638 q 210 837 169 778 q 303 935 250 896 q 415 988 356 974 q 528 988 474 1003 q 628 924 583 972 q 700 790 674 876 q 711 748 707 769 q 713 704 715 726 q 690 642 710 668 q 669 620 682 631 q 642 603 657 610 q 613 594 628 596 q 586 597 599 592 q 569 610 576 601 q 560 631 561 619 q 540 719 556 685 q 508 765 525 753 q 476 767 490 778 q 461 718 463 756 q 463 678 460 703 q 469 625 465 653 q 477 572 474 597 q 481 533 481 547 q 483 479 482 506 q 488 426 485 453 q 533 434 508 431 q 583 438 558 438 q 627 438 607 439 q 660 431 647 436 q 696 404 683 424 q 704 384 701 394 q 710 363 707 374 q 710 315 713 339 q 701 271 708 290 q 679 239 693 251 q 644 226 665 226 q 576 231 610 228 q 507 238 542 235 l 504 238 q 510 135 507 186 q 510 33 513 85 q 500 -49 507 -7 q 472 -125 493 -92 q 417 -176 451 -157 q 349 -201 383 -194 z "},"g":{"ha":851,"x_min":14,"x_max":818,"o":"m 785 1 q 717 -137 765 -78 q 603 -228 669 -196 q 461 -265 538 -261 q 310 -239 385 -269 q 242 -198 271 -224 q 194 -144 213 -172 q 169 -87 175 -115 q 172 -37 164 -58 q 204 -5 181 -15 q 269 0 228 6 q 299 -15 286 -3 q 323 -40 311 -26 q 347 -65 335 -54 q 376 -72 360 -75 q 434 -42 414 -68 q 464 22 454 -15 q 475 101 474 58 q 475 181 476 143 q 281 122 368 122 q 134 165 194 122 q 44 287 74 208 q 19 464 14 365 q 48 583 22 529 q 114 675 74 636 q 206 736 154 714 q 311 760 257 758 q 419 742 365 763 q 519 676 474 722 q 525 690 525 676 q 523 719 525 703 q 519 751 521 736 q 519 771 517 767 q 557 794 526 786 q 627 803 588 801 q 710 803 667 806 q 786 797 753 801 q 812 782 806 794 q 817 751 818 769 q 812 710 817 732 q 803 671 807 689 q 790 504 788 589 q 799 335 793 419 q 804 166 804 250 q 785 1 804 82 m 349 411 q 366 353 354 382 q 393 303 378 324 q 426 280 408 283 q 460 300 443 276 q 478 358 474 319 q 479 440 482 397 q 466 522 476 483 q 439 581 456 561 q 396 610 418 607 q 358 592 374 613 q 339 526 343 571 q 349 411 335 481 z "},"h":{"ha":889,"x_min":43,"x_max":858,"o":"m 844 3 q 820 -15 838 -10 q 782 -20 803 -19 q 740 -19 761 -21 q 703 -18 718 -18 q 682 -17 696 -18 q 652 -14 668 -15 q 622 -10 636 -12 q 601 -6 607 -8 q 581 14 585 -1 q 576 24 578 19 q 572 35 574 28 q 569 99 565 67 q 574 164 574 132 q 573 253 574 206 q 569 348 572 300 q 558 442 567 396 q 536 528 550 488 q 506 554 528 550 q 489 547 499 556 q 475 532 479 539 q 442 472 454 504 q 421 408 431 440 q 404 342 411 375 q 393 274 397 308 q 397 163 390 218 q 399 51 404 107 q 393 26 397 39 q 379 7 389 14 q 342 -12 363 -7 q 300 -18 321 -18 q 264 -18 288 -18 q 214 -16 240 -18 q 165 -10 188 -14 q 132 0 142 -7 q 114 20 121 7 q 104 46 107 33 q 60 279 74 156 q 45 524 47 403 q 49 757 43 646 q 64 951 56 868 q 65 970 64 957 q 69 997 67 983 q 74 1024 71 1011 q 79 1040 76 1036 q 101 1057 88 1053 q 126 1060 114 1061 q 153 1060 139 1060 q 198 1060 176 1060 q 243 1060 219 1061 q 326 1049 285 1057 q 408 1032 368 1042 q 429 1025 419 1029 q 444 1011 439 1021 q 450 994 450 1004 q 447 974 450 983 q 433 890 440 932 q 418 806 425 847 q 405 713 410 760 q 394 619 400 667 q 403 633 399 626 q 413 647 407 640 q 475 711 439 683 q 551 754 511 739 q 590 766 571 761 q 628 772 608 771 q 699 757 665 775 q 789 685 750 731 q 819 635 808 663 q 836 578 829 607 q 851 480 847 532 q 857 374 856 428 q 857 267 858 321 q 854 167 856 214 q 854 133 854 156 q 854 84 854 110 q 852 35 854 58 q 844 3 850 13 z "},"i":{"ha":453,"x_min":39,"x_max":440,"o":"m 329 707 q 289 695 314 699 q 235 690 264 692 q 181 692 207 689 q 139 699 156 694 q 110 710 124 703 q 83 724 96 717 q 53 753 63 735 q 40 805 39 776 q 49 860 42 833 q 68 903 56 882 q 100 939 81 924 q 141 959 118 953 q 188 967 164 965 q 238 967 213 968 q 286 960 263 965 q 327 947 307 956 q 363 925 347 939 q 386 874 383 904 q 386 832 389 853 q 379 790 383 811 q 363 743 374 767 q 329 707 351 719 m 286 -8 q 205 -12 247 -15 q 128 11 163 -8 q 76 65 94 31 q 51 136 57 100 q 43 212 44 174 q 43 289 42 250 q 45 404 44 347 q 50 519 46 461 q 51 542 50 528 q 55 572 53 557 q 61 601 57 588 q 74 619 65 614 q 101 628 81 624 q 131 635 122 633 q 211 638 171 639 q 290 629 251 638 l 294 629 q 324 624 310 628 q 349 610 338 619 q 369 578 364 597 q 374 546 374 563 q 371 514 374 529 q 359 433 368 474 q 344 353 350 393 q 335 247 338 300 q 347 140 333 193 q 353 120 350 133 q 364 104 356 107 q 373 103 367 104 q 382 103 379 101 q 403 108 392 108 q 422 102 414 107 q 435 89 431 97 q 438 71 440 81 q 417 41 433 54 q 377 18 400 28 q 329 2 354 8 q 286 -8 304 -4 z "},"j":{"ha":599,"x_min":13,"x_max":560,"o":"m 508 744 q 470 728 494 735 q 418 717 446 721 q 364 712 390 713 q 321 714 338 711 q 291 721 306 717 q 261 732 276 725 q 229 757 239 742 q 210 808 213 779 q 213 863 207 836 q 226 908 217 886 q 254 947 236 931 q 292 972 269 963 q 338 986 314 982 q 436 990 386 994 q 478 982 457 988 q 515 965 500 976 q 546 917 539 946 q 551 876 551 897 q 547 833 550 854 q 537 785 544 810 q 508 744 529 760 m 311 -232 q 246 -250 279 -243 q 179 -254 213 -257 q 92 -234 135 -251 q 25 -186 50 -217 q 14 -160 15 -175 q 18 -133 13 -146 q 28 -99 25 -114 q 53 -75 31 -83 q 90 -71 65 -69 q 128 -75 114 -72 q 183 -65 163 -79 q 213 -21 203 -50 q 249 171 244 72 q 246 368 254 269 q 244 386 246 374 q 240 413 242 399 q 233 438 238 426 q 225 456 229 450 q 208 465 218 463 q 186 469 197 467 q 165 476 175 472 q 147 486 156 479 q 129 518 132 499 q 128 557 126 538 q 131 588 128 572 q 146 614 133 604 q 165 622 153 619 q 192 624 176 624 q 308 633 250 629 q 425 640 367 638 q 470 639 447 640 q 513 629 493 638 q 549 596 540 618 q 558 544 560 571 q 556 492 556 518 q 549 285 551 388 q 539 78 546 182 q 527 -3 536 38 q 496 -81 518 -44 q 454 -136 478 -110 q 401 -183 431 -162 q 358 -211 381 -199 q 311 -232 336 -224 z "},"k":{"ha":847,"x_min":39,"x_max":829,"o":"m 167 -29 q 139 -33 153 -32 q 111 -29 125 -33 q 85 -4 94 -22 q 82 9 82 3 q 81 22 82 15 q 64 181 68 99 q 55 289 60 235 q 46 397 50 343 q 45 592 39 494 q 63 785 51 689 q 69 860 68 822 q 74 935 69 897 q 77 965 75 950 q 90 990 79 979 q 122 1012 103 1006 q 161 1019 142 1018 q 284 1024 224 1022 q 406 1019 344 1026 q 423 1017 414 1018 q 439 1010 432 1015 q 459 984 454 1000 q 453 954 464 968 q 413 795 428 875 q 388 633 397 715 q 385 616 388 628 q 382 590 383 604 q 380 565 381 576 q 379 549 379 553 q 382 543 381 546 q 386 538 383 540 q 392 539 390 538 q 456 562 424 546 q 508 604 488 578 q 533 647 524 624 q 550 693 543 669 q 561 747 557 719 q 565 801 565 774 q 581 826 565 818 q 606 830 588 829 q 631 831 624 831 q 667 831 643 831 q 717 831 690 832 q 766 828 743 831 q 799 819 789 825 q 815 808 808 815 q 828 767 826 793 q 824 715 829 742 q 811 661 819 688 q 794 617 803 635 q 735 531 772 569 q 654 461 697 492 q 596 427 626 442 q 533 401 565 413 q 586 379 561 390 q 644 340 617 363 q 694 292 671 317 q 751 218 726 257 q 790 135 776 179 q 796 110 792 126 q 803 77 800 94 q 808 44 807 60 q 808 19 810 28 q 794 -3 806 7 q 782 -8 789 -7 q 768 -10 775 -10 q 706 -14 736 -12 q 643 -18 675 -15 q 603 -24 624 -21 q 564 -21 583 -28 q 550 -10 556 -18 q 542 7 544 -1 q 535 41 538 24 q 529 75 532 58 q 519 118 525 97 q 507 161 514 139 q 491 200 500 181 q 467 235 482 219 q 431 265 451 253 q 389 288 410 278 q 377 291 382 290 q 367 294 372 292 q 371 261 369 279 q 372 225 372 243 q 372 191 372 207 q 371 165 371 175 q 372 99 371 132 q 372 33 372 65 q 371 15 372 24 q 364 -1 369 6 q 321 -19 346 -19 q 243 -21 282 -18 q 167 -29 204 -24 z "},"l":{"ha":488,"x_min":44,"x_max":467,"o":"m 297 -24 q 247 -31 272 -28 q 199 -32 222 -35 q 147 -11 171 -29 q 124 19 132 1 q 108 56 115 36 q 72 209 85 126 q 52 378 58 292 q 45 549 46 464 q 47 707 44 633 q 52 839 49 781 q 58 932 56 897 q 63 971 60 951 q 74 1008 65 990 q 103 1035 83 1025 q 142 1047 122 1046 q 183 1049 163 1049 q 224 1050 204 1050 q 330 1043 276 1050 q 432 1014 383 1036 q 451 1002 442 1010 q 463 983 460 994 q 465 951 467 968 q 460 917 463 933 q 431 768 444 842 q 407 619 417 694 q 399 528 401 574 q 394 439 397 483 q 390 317 392 376 q 389 194 389 257 q 390 178 390 186 q 392 161 390 169 q 398 110 394 136 q 404 60 401 85 q 405 44 404 53 q 404 29 406 36 q 369 -10 401 -3 q 333 -18 351 -15 q 297 -24 315 -21 z "},"m":{"ha":1249,"x_min":31,"x_max":1219,"o":"m 1053 -15 q 1010 -21 1032 -18 q 969 -17 989 -24 q 950 -5 958 -14 q 942 15 942 4 q 944 88 943 51 q 950 161 946 125 q 957 288 957 225 q 954 415 957 351 q 951 462 954 439 q 942 507 949 485 q 935 522 940 511 q 928 535 931 532 q 904 533 917 543 q 882 515 892 524 q 836 458 856 489 q 799 394 817 426 q 791 381 794 388 q 785 367 788 374 l 781 275 q 775 191 778 233 q 772 106 772 149 q 772 74 772 90 q 765 44 772 58 q 738 18 754 26 q 700 7 726 11 q 644 0 674 3 q 588 -3 615 -3 q 549 -4 561 -4 q 520 1 535 -4 q 499 18 506 6 q 495 35 496 24 q 496 51 494 46 q 506 117 503 83 q 513 183 510 150 q 520 275 517 229 q 525 367 524 321 q 525 438 526 403 q 514 507 524 472 q 483 546 507 535 q 440 539 460 557 q 403 492 418 519 q 381 435 389 464 q 367 373 372 404 q 358 310 363 342 q 364 243 361 276 q 371 176 367 210 q 378 122 374 149 q 381 67 382 94 q 372 33 379 50 q 350 7 364 17 q 313 -7 333 -4 q 271 -12 292 -10 q 220 -16 246 -15 q 169 -18 194 -17 q 134 -18 151 -19 q 101 -10 117 -17 q 92 -6 99 -8 q 83 0 86 -3 q 66 21 72 8 q 56 47 60 33 q 48 88 50 67 q 43 131 46 110 q 36 361 31 246 q 53 592 42 476 q 60 647 56 619 q 76 701 65 675 q 90 722 81 713 q 111 736 100 731 q 147 749 128 746 q 185 754 165 751 q 235 760 210 757 q 286 768 261 764 q 317 770 301 771 q 343 758 332 769 q 353 747 349 754 q 356 733 357 740 q 344 654 350 693 q 335 575 339 615 q 394 641 361 611 q 461 697 426 671 q 501 724 481 713 q 544 742 522 735 q 590 747 563 746 q 647 744 618 749 q 700 731 675 740 q 739 708 725 722 q 760 669 753 693 q 771 630 767 650 q 778 590 775 610 q 778 585 778 588 q 779 579 779 582 q 822 631 799 607 q 874 674 846 656 q 934 703 899 690 q 1006 721 969 715 q 1077 722 1043 726 q 1135 699 1111 717 q 1178 644 1163 676 q 1203 576 1193 611 q 1219 458 1219 518 q 1213 336 1218 397 q 1203 194 1207 265 q 1189 51 1199 122 q 1181 24 1188 38 q 1163 3 1174 10 q 1141 -3 1156 0 q 1109 -8 1126 -6 q 1076 -12 1092 -11 q 1053 -15 1060 -14 z "},"n":{"ha":821,"x_min":31,"x_max":789,"o":"m 169 -19 q 134 -19 151 -21 q 101 -11 117 -18 q 92 -7 99 -10 q 83 -3 86 -4 q 66 19 72 7 q 56 44 60 32 q 48 86 50 65 q 43 129 46 107 q 36 360 31 244 q 53 589 42 475 q 60 645 56 617 q 76 700 65 674 q 90 720 81 711 q 111 735 100 729 q 147 747 128 743 q 185 753 165 750 q 235 759 210 756 q 286 765 261 763 q 317 767 301 768 q 343 757 332 767 q 353 745 349 751 q 356 732 357 739 q 344 653 350 692 q 335 574 339 614 q 394 640 361 610 q 461 696 426 669 q 501 722 481 711 q 544 739 522 733 q 590 745 563 744 q 647 742 618 746 q 700 730 675 739 q 739 707 725 721 q 760 668 753 692 q 771 628 767 649 q 778 589 775 608 q 787 431 789 510 q 781 274 785 353 q 775 189 778 231 q 772 104 772 147 q 772 73 772 89 q 765 43 772 57 q 753 27 760 35 q 738 15 746 19 q 700 6 726 10 q 644 -2 674 1 q 588 -6 615 -6 q 549 -7 561 -7 q 520 -1 535 -6 q 499 17 506 4 q 495 33 496 22 q 496 50 494 44 q 506 115 503 82 q 513 182 510 149 q 520 273 517 228 q 525 364 524 318 q 525 435 526 400 q 514 506 524 471 q 483 544 507 533 q 440 538 460 556 q 403 490 418 518 q 381 433 389 463 q 367 372 372 403 q 358 308 363 340 q 364 242 361 275 q 371 175 367 208 q 378 120 374 147 q 381 65 382 93 q 372 31 379 49 q 350 6 364 14 q 313 -8 333 -6 q 271 -14 292 -11 q 220 -17 246 -17 q 169 -19 194 -18 z "},"o":{"ha":821,"x_min":13,"x_max":808,"o":"m 706 142 q 628 60 676 94 q 524 4 581 25 q 406 -22 467 -17 q 290 -12 344 -26 q 157 56 214 7 q 66 172 100 106 q 22 317 32 239 q 31 469 13 394 q 111 631 53 561 q 249 739 169 700 q 421 783 328 778 q 604 753 514 789 q 738 652 690 718 q 797 503 785 586 q 785 325 808 419 q 706 142 761 231 m 363 257 q 378 206 367 231 q 404 167 389 182 q 437 151 419 151 q 471 171 454 150 q 533 319 519 236 q 544 482 546 401 q 540 531 544 504 q 526 579 535 558 q 501 610 517 600 q 465 610 486 619 q 405 549 428 590 q 370 456 382 507 q 358 351 358 404 q 363 257 357 297 z "},"p":{"ha":814,"x_min":33,"x_max":814,"o":"m 300 -232 q 263 -241 279 -239 q 231 -244 246 -243 q 199 -244 215 -244 q 160 -242 182 -243 q 142 -240 151 -240 q 125 -232 132 -239 q 115 -216 118 -225 q 108 -196 111 -207 q 52 189 71 0 q 36 576 33 378 q 38 645 38 611 q 42 713 38 679 q 48 735 43 724 q 63 753 53 746 q 81 760 71 758 q 101 763 90 761 q 162 767 132 767 q 222 767 192 767 q 253 768 232 767 q 296 769 274 769 q 338 767 318 769 q 365 760 357 765 q 382 723 383 749 q 375 669 381 697 q 378 671 375 669 q 464 696 418 690 q 554 699 510 701 q 649 670 603 694 q 726 608 694 646 q 762 550 749 582 q 783 485 775 518 q 767 225 814 353 q 697 110 743 163 q 588 33 650 57 q 503 13 547 18 q 415 11 458 8 q 357 19 386 11 l 357 15 q 365 -60 361 -22 q 368 -135 368 -97 q 363 -178 369 -156 q 340 -214 357 -201 q 322 -225 332 -221 q 300 -232 311 -229 m 394 168 q 420 166 406 160 q 443 185 435 172 q 458 210 453 196 q 469 239 464 224 q 495 360 489 297 q 493 483 501 422 q 486 511 490 497 q 474 536 482 525 q 457 553 467 547 q 433 557 447 560 q 406 544 418 554 q 386 524 394 535 q 363 461 369 501 q 357 375 357 421 q 362 286 357 329 q 374 217 367 243 q 381 191 375 208 q 394 168 388 174 z "},"q":{"ha":860,"x_min":21,"x_max":849,"o":"m 729 -94 q 721 -153 736 -129 q 678 -189 706 -176 q 615 -202 650 -201 q 546 -190 579 -203 q 487 -149 513 -178 q 444 -85 461 -121 q 419 -10 428 -50 q 408 65 410 29 q 319 45 365 54 q 229 50 272 36 q 135 104 179 68 q 65 189 92 140 q 31 295 42 232 q 23 425 21 358 q 40 553 25 492 q 85 654 56 614 q 174 735 122 704 q 281 773 226 765 q 388 762 336 781 q 478 693 440 743 q 479 703 478 693 q 483 727 481 714 q 490 753 486 740 q 501 772 494 767 q 532 781 511 779 q 576 783 553 783 q 623 782 600 783 q 658 781 646 781 q 706 778 678 781 q 762 772 735 776 q 810 756 789 767 q 840 726 832 744 q 841 684 849 707 q 826 642 833 661 q 784 484 801 563 q 751 325 767 406 q 720 115 732 221 q 729 -94 708 10 m 338 293 q 349 260 340 276 q 369 233 358 243 q 392 221 381 222 q 413 235 404 219 q 440 307 429 263 q 453 400 450 351 q 453 494 457 449 q 436 568 449 539 q 409 601 425 590 q 378 592 393 611 q 351 532 361 571 q 335 449 340 493 q 331 362 331 404 q 338 293 332 319 z "},"r":{"ha":722,"x_min":21,"x_max":710,"o":"m 213 -7 q 183 -9 201 -7 q 144 -12 164 -11 q 107 -11 125 -12 q 81 -3 89 -10 q 68 18 71 6 q 68 42 67 29 q 78 203 75 122 q 75 367 82 285 q 56 507 69 438 q 25 646 42 576 q 22 667 22 657 q 24 688 21 678 q 38 707 28 700 q 68 721 47 715 q 113 730 89 726 q 158 735 136 733 q 192 738 179 738 q 229 742 206 739 q 278 746 253 744 q 324 745 303 747 q 356 733 346 743 q 368 709 365 725 q 371 674 371 693 q 403 716 386 697 q 444 747 421 735 q 509 774 474 765 q 578 775 544 782 q 624 756 603 771 q 658 715 643 739 q 682 667 674 692 q 698 594 693 631 q 707 522 703 558 q 706 451 710 483 q 699 437 703 444 q 689 426 696 429 q 669 419 679 419 q 650 415 660 418 q 511 371 581 399 q 486 369 499 365 q 468 386 474 372 q 466 399 465 393 q 467 413 467 406 q 470 455 469 433 q 468 497 471 476 q 462 528 467 513 q 444 553 457 544 q 424 558 436 560 q 404 547 413 557 q 389 522 397 538 q 361 442 369 483 q 347 357 353 400 q 351 194 347 275 q 355 158 353 182 q 358 108 357 135 q 357 58 358 82 q 350 24 356 35 q 330 4 343 11 q 303 -6 317 -3 q 257 -7 279 -8 q 213 -7 235 -6 z "},"s":{"ha":704,"x_min":22,"x_max":685,"o":"m 535 6 q 367 -17 456 -22 q 197 8 279 -11 q 152 19 178 13 q 102 37 126 26 q 60 60 78 47 q 39 90 42 74 q 49 135 36 111 q 83 179 63 160 q 129 208 104 199 q 174 206 154 217 q 216 183 193 194 q 263 163 239 171 q 310 153 286 156 q 356 157 333 150 q 372 183 378 164 q 349 215 367 201 q 268 259 313 240 q 181 297 224 278 q 103 342 139 317 q 51 404 68 367 q 24 531 22 469 q 57 642 26 592 q 145 725 88 692 q 283 768 203 758 q 397 767 338 775 q 510 742 457 760 q 605 700 564 725 q 665 647 646 675 q 676 588 685 618 q 622 531 668 557 q 578 509 599 517 q 529 525 557 501 q 506 540 521 532 q 476 556 492 549 q 445 572 461 564 q 419 583 429 579 q 374 592 396 594 q 338 578 351 589 q 325 552 325 568 q 344 521 325 536 q 417 478 378 496 q 496 442 457 460 q 570 402 535 424 q 631 349 606 381 q 674 253 664 304 q 672 153 685 201 q 625 65 660 104 q 535 6 590 25 z "},"t":{"ha":706,"x_min":14,"x_max":694,"o":"m 481 -36 q 419 -35 450 -39 q 360 -21 389 -32 q 321 -6 340 -15 q 288 14 301 3 q 205 100 242 51 q 150 204 168 149 q 128 313 135 253 q 113 421 117 365 q 108 532 110 476 l 108 540 q 67 539 89 536 q 49 540 58 539 q 33 546 40 540 q 24 558 28 550 q 19 577 21 567 q 15 598 17 588 q 14 615 14 608 q 15 634 14 622 q 16 658 15 646 q 19 683 17 671 q 26 700 22 694 q 40 711 32 707 q 57 717 49 715 q 85 719 71 719 q 113 718 99 719 q 142 958 119 840 q 150 983 144 971 q 167 1003 156 996 q 192 1011 175 1008 q 230 1015 210 1014 q 269 1017 250 1017 q 299 1017 288 1017 q 383 1012 340 1017 q 463 988 426 1007 q 493 956 483 979 q 495 918 497 943 q 488 865 493 893 q 478 813 483 838 q 469 775 472 788 q 465 751 467 764 q 460 726 463 739 q 527 726 493 729 q 596 721 561 724 q 622 717 608 719 q 643 703 636 714 q 653 677 650 692 q 654 649 656 663 q 653 626 654 640 q 649 599 651 613 q 642 573 647 585 q 632 556 638 561 q 605 546 624 549 q 565 542 586 543 q 525 542 544 542 q 494 543 506 543 q 463 545 479 544 q 432 549 447 546 q 422 398 424 474 q 428 247 421 322 q 460 174 432 199 q 539 160 489 149 q 560 167 550 163 q 579 178 569 171 q 604 188 590 185 q 629 183 618 190 q 654 163 644 176 q 674 135 664 149 q 688 108 681 122 q 690 81 694 94 q 674 54 685 65 q 651 33 664 43 q 571 -13 615 6 q 481 -36 526 -32 z "},"u":{"ha":840,"x_min":32,"x_max":819,"o":"m 796 3 q 709 -21 754 -12 q 619 -24 664 -29 q 580 -17 600 -21 q 542 -3 560 -12 q 516 14 529 4 q 496 35 503 24 q 480 27 488 31 q 465 21 472 24 q 406 0 436 8 q 343 -15 375 -8 q 279 -22 311 -21 q 217 -15 247 -22 q 108 54 151 1 q 67 129 81 88 q 46 214 53 171 q 32 382 32 297 q 36 553 32 467 q 38 597 36 569 q 46 654 40 625 q 60 708 51 683 q 82 744 68 733 q 113 757 94 756 q 147 757 131 758 q 193 760 171 760 q 228 761 215 761 q 268 758 247 760 q 308 754 289 757 q 342 747 325 751 q 372 732 358 743 q 391 703 385 721 q 397 667 397 685 q 388 596 396 631 q 371 526 379 561 q 341 367 351 447 q 342 207 331 286 q 349 167 343 188 q 374 149 354 146 q 394 158 385 150 q 411 175 404 167 q 449 250 439 207 q 467 333 460 293 q 480 517 481 425 q 479 703 479 610 q 484 724 479 714 q 499 742 489 735 q 516 747 504 746 q 542 750 528 749 q 568 751 556 751 q 588 751 581 751 q 634 751 611 751 q 681 750 657 750 q 723 748 701 749 q 764 740 744 747 q 788 728 776 738 q 806 707 800 719 q 812 674 813 692 q 808 640 811 657 q 789 535 800 588 q 767 431 778 483 q 749 326 757 379 q 743 219 742 274 q 744 186 743 207 q 747 143 744 165 q 755 102 750 121 q 769 75 760 83 q 792 64 778 67 q 811 55 804 63 q 819 37 818 47 q 814 17 819 26 q 796 3 808 7 z "},"v":{"ha":750,"x_min":19,"x_max":731,"o":"m 424 -26 q 348 -30 386 -32 q 274 -21 310 -28 q 233 -6 253 -17 q 197 19 213 4 q 151 81 169 46 q 118 153 132 117 q 56 401 75 275 q 21 657 36 528 q 19 678 19 668 q 25 700 19 689 q 53 726 32 717 q 104 744 74 740 q 192 755 149 751 q 278 767 235 758 q 306 771 292 769 q 332 767 319 772 q 352 749 344 763 q 361 721 360 735 q 370 532 371 626 q 385 343 369 438 q 395 288 389 315 q 417 236 401 260 q 435 276 428 256 q 450 318 443 297 q 453 334 451 321 q 456 350 454 347 q 496 535 481 442 q 532 722 511 629 l 536 739 q 538 752 538 746 q 540 761 538 758 q 553 776 544 771 q 572 785 563 782 q 658 786 613 793 q 683 781 671 783 q 707 772 696 779 q 726 751 722 764 q 731 716 731 740 q 727 665 731 692 q 720 615 724 639 q 715 578 717 590 q 696 455 704 515 q 675 332 688 394 q 651 224 664 278 q 619 117 638 169 q 590 49 608 82 q 542 -4 572 15 q 503 -16 529 -11 q 450 -22 478 -21 q 437 -24 443 -24 q 424 -26 431 -25 z "},"w":{"ha":1067,"x_min":31,"x_max":1042,"o":"m 426 -4 q 353 -24 392 -21 q 275 -26 314 -26 q 229 -21 251 -25 q 185 -6 207 -17 q 122 51 149 13 q 81 132 96 90 q 38 331 44 228 q 33 538 31 435 q 39 627 35 582 q 47 718 43 672 q 57 738 50 731 q 60 742 57 739 q 83 751 65 749 q 107 754 100 754 q 217 774 163 761 q 326 783 271 786 q 346 779 336 783 q 361 767 356 775 q 367 747 365 760 q 367 720 368 735 q 364 692 365 706 q 361 669 363 678 q 340 446 347 558 q 353 224 333 333 q 364 185 354 206 q 422 336 403 253 q 434 439 431 388 q 439 543 438 490 q 440 581 440 563 q 444 619 440 600 q 458 649 449 635 q 482 668 468 663 q 520 674 500 675 q 560 671 540 674 q 623 671 592 668 q 685 681 654 674 q 698 685 688 682 q 711 688 708 688 q 731 674 725 688 q 738 646 738 661 q 736 594 738 619 q 735 542 735 568 q 736 425 732 483 q 756 310 740 367 q 765 278 760 294 q 778 249 771 263 q 797 292 789 269 q 811 339 804 315 q 835 448 825 393 q 856 558 846 503 q 856 658 860 608 q 851 706 854 682 q 853 753 847 729 q 879 790 857 779 q 902 796 890 796 q 925 796 914 796 q 944 796 931 796 q 974 794 958 796 q 1003 791 990 793 q 1024 786 1017 789 q 1039 763 1036 779 q 1041 749 1040 756 q 1042 736 1042 743 q 1019 429 1042 582 q 953 129 997 276 q 936 80 946 104 q 911 33 926 56 q 874 -1 897 11 q 826 -18 850 -12 q 746 -26 786 -26 q 667 -17 706 -25 q 632 -6 649 -12 q 600 13 615 1 q 553 66 572 35 q 522 131 535 97 q 511 161 517 144 q 506 138 508 150 q 500 115 503 126 q 487 72 494 93 q 467 31 479 50 q 426 -4 449 6 z "},"x":{"ha":735,"x_min":13,"x_max":715,"o":"m 215 -51 q 192 -49 207 -53 q 159 -39 176 -44 q 126 -28 142 -33 q 103 -19 111 -22 q 73 -7 89 -14 q 45 8 57 0 q 28 28 33 17 q 32 53 24 39 q 42 66 33 57 q 62 85 51 75 q 81 103 72 94 q 94 115 90 111 q 170 205 135 158 q 242 297 206 251 q 176 394 210 346 q 107 489 143 443 q 66 539 88 514 q 26 592 44 564 q 21 603 25 597 q 15 631 13 615 q 28 654 17 646 q 37 661 32 658 q 46 667 42 664 q 90 697 61 676 q 151 738 119 718 q 214 772 183 757 q 264 788 244 788 q 289 780 275 788 q 308 763 303 772 q 320 747 314 754 q 332 731 326 739 q 391 640 363 686 q 442 546 419 594 q 463 596 453 571 q 481 646 472 621 q 497 694 489 669 q 513 743 504 719 q 528 778 517 754 q 549 808 539 801 q 561 813 554 811 q 575 813 568 815 q 591 804 583 810 q 607 793 599 799 q 679 756 644 771 q 704 736 693 749 q 715 708 715 724 q 712 685 715 696 q 703 663 708 674 q 655 576 681 618 q 606 492 629 535 q 577 434 590 464 q 546 376 564 404 q 547 376 547 376 q 549 375 547 375 q 615 283 583 329 q 676 189 647 238 q 691 163 685 176 q 704 136 697 150 q 710 111 708 125 q 708 86 713 97 q 698 69 706 76 q 681 56 690 61 q 614 13 647 33 q 546 -29 581 -8 q 528 -39 538 -35 q 507 -44 518 -43 q 458 -22 476 -47 q 439 12 447 -7 q 421 47 431 31 q 391 103 406 75 q 357 156 376 131 q 348 142 353 149 q 340 129 343 135 q 297 52 317 90 q 253 -22 278 14 q 236 -41 246 -33 q 215 -51 226 -49 z "},"y":{"ha":828,"x_min":24,"x_max":789,"o":"m 753 -7 q 685 -140 733 -83 q 572 -229 638 -197 q 429 -265 506 -261 q 278 -240 353 -269 q 183 -176 219 -218 q 138 -93 146 -133 q 153 -26 129 -53 q 238 -7 176 1 q 267 -22 254 -10 q 291 -47 279 -33 q 315 -70 303 -60 q 344 -78 328 -81 q 408 -48 382 -74 q 449 13 433 -22 q 472 90 465 49 q 479 167 479 131 q 328 98 394 113 q 210 98 261 83 q 124 152 160 113 q 65 247 88 192 q 33 369 43 303 q 26 506 24 436 q 31 601 29 554 q 44 696 33 649 q 51 717 47 707 q 64 733 56 726 q 119 753 89 753 q 181 750 150 754 q 213 746 192 749 q 257 738 235 743 q 299 728 279 733 q 326 714 318 722 q 340 683 340 703 q 340 640 343 661 q 335 597 338 619 q 326 535 331 565 q 319 474 321 506 q 333 323 314 376 q 381 259 353 269 q 437 281 408 249 q 476 390 465 314 q 483 516 486 456 q 481 643 481 576 q 478 667 481 656 q 476 690 476 678 q 481 713 476 701 q 496 738 485 725 q 534 758 507 750 q 596 768 561 765 q 668 771 631 771 q 739 767 706 771 q 768 753 758 764 q 781 725 778 742 q 785 688 785 708 q 785 650 785 668 q 787 505 785 586 q 788 336 789 424 q 780 160 788 249 q 753 -7 772 72 z "},"z":{"ha":696,"x_min":17,"x_max":682,"o":"m 558 -19 q 488 -19 522 -22 q 383 -15 435 -17 q 281 -15 332 -14 q 188 -16 235 -15 q 97 -7 142 -17 q 67 1 82 -4 q 39 17 51 6 q 18 62 19 35 q 26 119 17 89 q 52 178 36 149 q 83 229 68 207 q 190 389 136 307 q 292 543 244 471 q 312 572 301 558 q 329 601 322 586 q 309 606 325 604 q 288 608 293 608 q 240 610 267 610 q 185 610 214 610 q 131 610 157 610 q 83 613 104 610 q 60 620 72 615 q 44 636 49 625 q 38 660 40 646 q 35 691 36 675 q 36 722 35 707 q 40 746 38 736 q 51 773 44 760 q 68 793 57 786 q 111 805 82 801 q 174 808 140 808 q 238 806 207 808 q 285 803 269 804 q 351 801 313 801 q 430 801 390 801 q 507 802 469 801 q 571 803 544 803 q 634 788 608 803 q 671 749 660 774 q 677 692 682 724 q 649 626 672 660 q 597 544 624 590 q 541 449 569 499 q 485 349 513 400 q 429 254 457 299 q 400 208 414 231 q 372 163 386 186 q 370 159 371 160 q 368 156 369 158 q 398 158 379 156 q 436 164 417 161 q 474 169 456 167 q 504 172 493 172 q 537 176 517 172 q 577 183 557 181 q 615 184 597 186 q 642 172 633 182 q 652 148 649 164 q 656 113 656 132 q 656 77 657 94 q 653 49 654 60 q 642 19 650 33 q 622 -3 635 4 q 591 -14 607 -11 q 558 -19 575 -17 z "},"{":{"ha":565,"x_min":36,"x_max":551,"o":"m 493 -85 q 331 -115 417 -124 q 179 -53 246 -106 q 141 -16 160 -36 q 113 28 122 4 q 104 71 106 49 q 101 114 103 93 q 106 201 101 158 q 111 286 111 243 q 108 329 111 308 q 96 369 104 350 q 72 395 88 386 q 44 419 56 404 q 36 448 36 431 q 44 476 36 465 q 56 487 50 483 q 69 496 63 490 q 90 513 81 504 q 106 533 99 522 q 115 558 113 544 q 118 583 117 571 q 113 654 121 619 q 97 725 104 689 q 90 792 90 757 q 96 860 89 826 q 114 913 101 888 q 143 961 126 939 q 199 1017 167 993 q 267 1054 231 1040 q 360 1071 311 1072 q 454 1058 408 1069 q 485 1052 469 1056 q 517 1042 501 1049 q 542 1019 533 1033 q 551 988 550 1004 q 544 954 551 971 q 524 925 538 938 q 499 914 513 917 q 471 910 485 911 q 423 906 447 908 q 381 888 399 903 q 367 859 369 876 q 364 826 364 842 q 365 769 361 797 q 374 711 369 740 q 381 653 378 682 q 381 596 383 625 q 360 525 376 558 q 324 477 346 497 q 278 440 301 457 q 325 408 303 428 q 361 364 347 389 q 378 317 374 342 q 386 265 383 292 q 388 198 389 232 q 388 129 386 164 q 388 102 388 117 q 392 76 389 88 q 402 57 396 64 q 421 53 408 50 q 458 62 440 56 q 494 65 475 68 q 521 58 510 65 q 546 13 542 43 q 540 -42 550 -18 q 520 -67 533 -57 q 493 -85 507 -78 z "},"}":{"ha":547,"x_min":-4,"x_max":511,"o":"m 368 -53 q 215 -115 301 -106 q 54 -85 129 -124 q 27 -67 40 -78 q 7 -42 14 -57 q 1 13 -4 -18 q 26 58 6 43 q 38 64 32 63 q 51 65 44 65 q 88 62 71 68 q 125 53 106 56 q 144 57 138 50 q 153 76 150 64 q 157 102 156 88 q 158 129 158 117 q 160 198 161 164 q 161 265 158 232 q 168 317 163 292 q 186 364 174 342 q 222 408 200 389 q 269 440 243 428 q 223 477 246 457 q 186 525 200 497 q 174 560 178 542 q 167 596 169 578 q 167 653 164 625 q 174 711 169 682 q 181 769 178 740 q 183 826 185 797 q 179 859 182 842 q 165 888 176 876 q 123 906 147 903 q 75 910 99 908 q 48 914 61 911 q 24 925 35 917 q 3 954 10 938 q -3 988 -4 971 q 6 1019 -3 1004 q 31 1042 14 1033 q 61 1052 46 1049 q 92 1058 76 1056 q 186 1071 138 1069 q 279 1054 235 1072 q 348 1017 315 1040 q 404 961 381 993 q 433 913 419 939 q 451 860 446 888 q 458 792 458 826 q 450 725 457 757 q 435 654 443 689 q 429 583 426 619 q 431 558 429 571 q 440 533 433 544 q 457 513 447 522 q 476 496 467 504 q 490 487 483 490 q 503 476 497 483 q 510 448 511 465 q 503 419 510 431 q 476 395 492 404 q 451 369 460 386 q 439 329 442 350 q 436 286 436 308 q 441 201 436 243 q 444 114 446 158 q 442 71 444 93 q 433 28 440 49 q 406 -16 424 4 q 368 -53 388 -36 z "},"~":{"ha":765,"x_min":19,"x_max":740,"o":"m 240 250 q 186 251 214 243 q 132 268 158 258 q 95 282 113 275 q 61 297 78 289 q 31 324 42 307 q 31 360 19 342 q 40 378 33 363 q 49 399 46 394 q 91 462 68 431 q 143 517 114 493 q 165 534 154 525 q 189 550 176 543 q 293 567 238 578 q 340 551 318 563 q 383 526 363 540 q 425 498 404 513 q 468 471 446 483 q 490 461 479 465 q 513 460 501 457 q 543 482 529 467 q 577 522 563 500 q 614 558 592 543 q 631 567 621 564 q 651 567 642 569 q 678 558 664 565 q 704 542 692 551 q 726 520 717 532 q 738 496 735 508 q 738 467 740 481 q 731 439 736 453 q 699 383 718 410 q 658 332 679 357 q 619 293 640 311 q 571 265 597 275 q 479 265 526 249 q 433 292 454 275 q 392 325 413 308 q 372 340 385 331 q 351 346 360 349 q 331 333 340 342 q 314 317 321 325 q 281 277 297 297 q 240 250 264 257 z "},"":{"ha":417,"x_min":0,"x_max":0,"o":""},"":{"ha":754,"x_min":32,"x_max":718,"o":"m 264 -24 q 238 -37 254 -37 q 219 -34 231 -37 q 195 -25 207 -31 q 173 -13 183 -19 q 158 -1 163 -7 q 153 11 156 3 q 151 25 150 19 q 160 49 154 38 q 172 72 167 61 q 186 100 179 86 q 200 128 193 114 q 144 167 169 144 q 101 218 119 189 q 47 365 61 282 q 42 530 32 447 q 86 688 51 613 q 178 814 121 764 q 263 869 217 849 q 358 898 310 890 q 456 899 407 906 q 550 874 506 893 q 588 946 565 908 q 603 964 593 957 q 624 971 613 971 q 658 966 640 971 q 690 952 676 961 q 711 930 704 943 q 714 900 718 917 q 692 847 706 872 q 664 796 679 821 q 663 794 664 794 q 663 793 663 794 q 681 771 672 782 q 697 747 690 760 q 704 693 714 722 q 672 643 694 664 q 622 617 650 622 q 575 632 594 611 q 568 618 574 626 q 484 451 526 535 q 401 283 442 368 q 404 282 403 282 q 474 282 443 268 q 531 317 506 296 q 580 354 557 338 q 626 363 603 371 q 681 316 669 349 q 683 247 693 283 q 643 174 672 210 q 574 121 614 139 q 448 87 515 94 q 314 90 381 79 q 303 66 308 78 q 293 42 299 54 q 281 9 286 26 q 264 -24 275 -8 m 358 603 q 347 522 351 572 q 346 419 343 471 q 416 560 382 490 q 483 700 450 629 q 403 683 436 714 q 358 603 369 653 z "},"":{"ha":946,"x_min":42,"x_max":919,"o":"m 749 -24 q 687 -32 718 -31 q 624 -31 656 -33 q 523 -10 572 -26 q 425 18 474 6 q 373 28 400 25 q 318 28 346 31 q 276 22 297 26 q 233 11 254 18 q 181 -8 206 4 q 128 -25 156 -19 q 92 -19 110 -28 q 68 4 74 -11 q 57 51 61 28 q 50 97 53 74 q 44 141 47 119 q 44 183 42 163 q 68 221 44 207 q 92 230 79 228 q 119 233 106 232 q 169 236 144 235 q 218 244 194 238 q 247 253 233 247 q 272 267 261 258 q 256 338 269 303 q 222 406 242 372 q 181 406 201 406 q 140 407 161 406 q 101 411 119 407 q 69 424 83 415 q 53 442 58 429 q 46 470 49 456 q 43 499 43 485 q 43 522 43 514 q 46 535 44 529 q 50 547 47 540 q 82 572 57 564 q 108 578 94 576 q 136 581 122 579 q 120 633 126 607 q 110 688 114 660 q 107 764 103 725 q 124 840 111 803 q 139 881 131 860 q 163 918 147 901 q 225 971 189 949 q 301 1008 261 993 q 479 1046 385 1039 q 585 1038 532 1049 q 683 1003 639 1026 q 762 943 728 979 q 814 864 796 907 q 833 783 829 825 q 833 701 836 742 q 819 673 832 682 q 785 662 806 664 q 742 662 765 660 q 696 667 718 664 q 664 671 681 669 q 632 675 647 672 q 619 679 625 676 q 607 683 614 682 q 588 694 596 686 q 578 713 581 703 q 576 732 575 722 q 576 753 576 742 q 576 778 576 763 q 573 810 575 793 q 566 841 571 826 q 554 863 561 856 q 532 871 544 868 q 481 857 504 871 q 450 819 458 843 q 437 714 433 768 q 456 607 440 660 q 460 589 458 596 l 503 589 q 572 588 538 589 q 640 583 607 586 q 688 575 667 581 q 722 550 713 567 q 731 522 729 536 q 733 493 732 507 q 735 466 735 479 q 725 442 736 453 q 705 430 718 435 q 676 422 692 425 q 601 415 639 417 q 525 413 564 413 q 545 365 535 389 q 569 319 556 342 q 596 288 581 299 q 626 276 607 278 q 665 276 644 274 q 706 284 686 279 q 742 294 726 289 q 774 311 760 301 q 807 326 789 321 q 840 325 824 331 q 860 304 857 319 q 867 285 861 300 q 876 265 874 269 q 901 206 889 236 q 917 143 914 175 q 919 129 918 136 q 917 113 919 122 q 906 87 914 99 q 889 64 899 75 q 826 9 863 33 q 749 -24 790 -15 z "},"":{"ha":900,"x_min":33,"x_max":864,"o":"m 846 217 q 816 185 835 204 q 776 147 797 165 q 732 117 754 129 q 693 104 710 104 q 674 108 683 104 q 658 117 665 111 q 622 153 638 132 q 589 193 606 174 q 584 199 586 196 q 579 204 582 201 q 417 176 501 174 q 264 211 333 178 q 247 188 257 203 q 226 159 238 174 q 205 133 215 144 q 188 117 194 121 q 153 117 172 110 q 118 135 133 125 q 94 151 106 142 q 75 174 82 161 q 68 190 71 181 q 68 208 65 199 q 84 240 72 225 q 107 268 96 254 q 127 288 118 278 q 146 308 136 297 l 151 314 q 116 401 128 354 q 104 499 104 449 q 115 597 104 549 q 144 688 125 646 q 147 692 146 690 q 149 697 147 694 l 135 711 q 108 735 125 719 q 76 770 92 751 q 47 807 60 789 q 35 838 35 825 q 40 859 33 849 q 56 876 47 869 q 186 976 114 939 q 213 989 199 983 q 242 992 226 994 q 263 981 253 989 q 279 963 272 974 q 314 907 296 935 q 347 851 332 879 q 469 878 407 874 q 589 868 532 883 q 625 916 608 892 q 665 958 642 940 q 680 968 672 964 q 697 975 688 972 q 728 969 715 978 q 750 952 740 963 q 769 932 760 942 q 795 908 782 921 q 810 878 808 894 q 802 857 810 868 q 783 835 794 846 q 760 814 772 824 q 742 799 749 804 l 729 786 q 789 695 767 746 q 817 589 811 644 q 811 477 822 533 q 771 369 800 421 q 807 331 789 350 q 843 293 825 313 q 857 275 850 285 q 864 254 864 265 q 846 217 863 235 m 403 438 q 419 400 408 418 q 445 371 431 382 q 475 358 460 360 q 506 371 490 356 q 536 431 526 393 q 547 510 546 468 q 542 591 547 551 q 526 658 536 631 q 512 685 521 672 q 491 706 503 699 q 467 713 479 713 q 443 700 454 713 q 413 647 425 681 q 397 574 401 613 q 393 499 392 536 q 403 438 394 463 z "},"":{"ha":1011,"x_min":19,"x_max":981,"o":"m 546 -17 q 454 -18 500 -17 q 364 -14 408 -19 q 333 -6 349 -11 q 307 10 318 -1 q 290 30 296 18 q 281 54 283 42 q 277 92 276 74 q 281 131 278 111 q 285 172 281 151 l 254 172 q 228 174 242 174 q 203 175 215 174 q 174 179 188 176 q 151 188 161 182 q 132 213 135 199 q 131 231 132 218 q 131 257 131 243 q 133 283 131 271 q 139 300 135 294 q 199 324 154 319 q 251 326 225 326 q 304 326 276 326 q 307 353 306 340 q 311 381 308 367 q 287 381 299 381 q 263 382 275 381 q 237 382 250 382 q 211 383 224 382 q 183 388 196 385 q 160 396 169 390 q 140 421 143 407 q 140 440 140 426 q 139 466 139 453 q 141 492 139 479 q 147 510 143 504 q 207 532 164 528 q 221 533 211 533 q 126 686 168 607 q 50 849 83 765 q 29 904 39 876 q 19 960 19 932 q 44 1010 19 989 q 104 1042 69 1032 q 172 1060 139 1051 q 214 1070 193 1065 q 256 1078 235 1075 q 290 1079 272 1081 q 324 1069 308 1078 q 349 1049 339 1063 q 365 1024 358 1036 q 383 985 376 1004 q 399 946 390 965 q 449 826 422 885 q 508 710 476 767 q 532 669 519 689 q 558 631 544 650 q 607 740 582 686 q 660 847 632 794 q 706 938 683 893 q 758 1025 729 983 q 789 1058 771 1043 q 831 1078 807 1072 q 881 1076 856 1083 q 929 1057 907 1068 q 951 1044 940 1050 q 969 1026 963 1038 q 978 993 981 1011 q 968 964 975 978 q 954 936 961 950 q 918 882 936 908 q 881 828 900 856 q 717 533 786 688 q 731 533 724 533 q 744 532 738 532 q 799 526 771 529 q 843 513 826 524 q 858 494 853 506 q 865 468 863 482 q 866 441 867 454 q 863 419 865 428 q 852 404 860 413 q 831 390 844 396 q 793 384 814 385 q 753 383 772 383 q 722 382 738 382 q 690 382 706 382 q 691 369 690 375 q 692 358 692 364 l 696 325 q 715 324 706 324 q 736 322 725 324 q 791 318 763 321 q 835 304 819 315 q 849 285 844 297 q 856 260 854 274 q 858 233 858 246 q 854 211 857 219 q 844 194 851 203 q 822 182 836 186 q 785 176 806 176 q 744 174 764 175 l 718 174 q 724 147 721 160 q 729 121 726 133 q 740 81 735 101 q 746 40 746 61 q 718 0 746 15 q 683 -9 707 -6 q 633 -14 660 -12 q 583 -16 607 -15 q 546 -17 558 -17 z "},"":{"ha":0,"x_min":0,"x_max":0,"o":""},"":{"ha":763,"x_min":32,"x_max":729,"o":"m 483 325 q 443 319 471 322 q 384 315 415 317 q 325 313 353 313 q 285 317 297 314 q 253 339 264 321 q 246 364 246 350 q 246 392 246 378 q 247 461 246 426 q 249 532 247 496 q 236 533 242 532 q 228 533 231 533 q 192 530 215 532 q 142 527 168 528 q 92 528 115 526 q 60 535 69 529 q 47 547 51 539 q 40 565 43 556 q 36 658 32 611 q 41 677 38 668 q 53 690 44 686 q 77 697 61 694 q 112 699 93 699 q 148 699 131 700 q 174 699 165 699 q 203 698 189 699 q 233 696 218 697 q 235 858 226 781 q 240 883 238 871 q 251 906 242 896 q 278 919 263 915 q 308 925 293 924 q 382 928 344 928 q 456 926 419 928 q 473 926 461 926 q 497 926 485 926 q 519 923 508 925 q 533 918 529 921 q 547 893 544 908 q 544 864 549 886 q 539 835 540 842 q 526 771 532 803 q 515 707 521 739 q 592 710 554 710 q 669 707 631 710 q 688 706 679 707 q 707 701 697 706 q 725 683 718 697 q 729 663 729 676 q 728 635 729 650 q 724 606 726 619 q 721 585 722 592 q 716 568 719 576 q 706 554 713 560 q 690 547 699 549 q 671 544 681 546 q 583 545 626 544 q 496 543 540 546 q 497 536 497 540 q 499 483 497 508 q 503 429 500 457 q 505 411 503 424 q 508 385 507 399 q 510 360 510 372 q 508 343 510 349 q 483 325 501 328 m 558 7 q 364 4 461 10 q 169 4 267 -1 q 129 11 150 6 q 96 32 108 17 q 78 70 81 47 q 75 115 76 93 q 75 136 75 122 q 75 166 75 150 q 76 195 75 182 q 79 215 76 208 q 101 236 86 228 q 115 240 108 239 q 128 244 121 242 q 167 252 147 250 q 207 256 188 254 q 350 258 279 260 q 493 254 421 256 q 564 253 529 253 q 633 247 599 254 q 672 225 658 244 q 681 200 678 217 q 685 164 683 183 q 686 127 686 144 q 686 100 686 110 q 679 64 685 82 q 663 32 674 46 q 645 19 656 24 q 624 11 635 14 q 610 9 619 10 q 591 8 601 8 q 572 7 581 7 q 558 7 563 7 z "},"":{"ha":785,"x_min":21,"x_max":753,"o":"m 582 143 q 561 140 572 140 q 540 143 550 139 q 517 160 528 150 q 499 181 507 169 q 470 222 483 200 q 442 263 457 243 q 422 284 432 274 q 401 306 413 294 q 393 296 399 301 q 346 255 369 275 q 299 214 322 235 q 271 189 283 201 q 243 164 258 176 q 220 149 233 156 q 193 144 207 143 q 138 171 164 149 q 90 216 113 192 q 46 267 67 240 q 42 273 44 268 q 39 279 40 278 q 38 321 21 297 q 58 340 46 332 q 81 356 69 347 q 156 403 117 381 q 236 443 196 425 q 178 490 207 467 q 121 538 150 514 q 95 558 108 549 q 74 583 82 568 q 72 587 74 585 q 69 590 69 589 q 65 614 63 599 q 74 640 67 629 q 103 670 82 653 q 149 704 124 688 q 198 735 174 721 q 236 754 222 749 q 258 760 247 758 q 281 760 269 763 q 300 749 292 757 q 315 731 308 740 q 372 657 344 694 q 428 582 400 619 q 593 739 503 668 q 614 751 603 746 q 636 757 625 757 q 665 740 650 756 q 678 724 672 733 q 692 706 685 715 q 718 665 706 686 q 742 624 731 644 q 750 600 747 613 q 750 575 753 588 q 736 555 747 567 q 710 532 725 543 q 682 511 696 521 q 660 496 668 501 q 619 467 640 481 q 579 438 599 453 l 590 426 q 642 378 615 401 q 694 331 668 354 q 710 316 703 324 q 724 299 718 308 q 729 274 731 288 q 717 250 728 261 q 681 216 699 232 q 643 183 663 200 q 613 161 628 172 q 582 143 599 150 z "},"":{"ha":650,"x_min":26,"x_max":624,"o":"m 413 568 q 381 553 399 558 q 346 547 364 547 q 310 549 328 546 q 279 561 293 553 q 261 574 269 568 q 247 592 253 581 q 239 622 239 606 q 244 656 239 639 q 258 688 249 672 q 281 714 268 703 q 317 736 296 728 q 357 743 338 744 q 389 731 374 740 q 415 711 404 722 q 439 676 431 696 q 447 637 447 657 q 439 599 447 617 q 413 568 431 581 m 189 313 q 147 310 168 311 q 104 310 125 308 q 74 317 89 311 q 47 333 58 322 q 35 358 39 342 q 28 392 31 374 q 26 427 26 410 q 28 456 26 444 q 29 465 29 461 q 31 474 29 469 q 54 500 38 492 q 93 507 67 506 q 149 508 119 508 q 207 504 179 507 q 249 501 235 501 q 253 501 250 501 q 257 500 256 500 q 326 504 292 503 q 394 506 360 506 q 438 503 417 504 q 481 503 460 503 q 518 503 500 503 q 556 504 536 504 q 584 501 569 504 q 607 488 599 499 q 618 462 614 479 q 623 426 622 444 q 623 389 624 407 q 621 360 622 371 q 610 335 618 347 q 592 318 603 324 q 568 315 585 315 q 533 315 551 314 q 499 317 515 315 q 475 318 483 318 q 333 319 404 321 q 189 313 261 318 m 393 104 q 363 89 379 94 q 328 82 346 83 q 292 84 310 81 q 261 97 275 88 q 243 110 251 103 q 228 126 235 117 q 219 158 219 140 q 225 192 219 175 q 240 223 231 208 q 263 249 250 238 q 298 272 278 263 q 339 279 318 281 q 370 267 356 276 q 397 246 385 257 q 421 212 413 231 q 428 173 429 193 q 419 135 428 153 q 393 104 411 117 z "},"":{"ha":332,"x_min":29,"x_max":308,"o":"m 178 683 q 108 692 138 679 q 60 731 78 706 q 35 792 42 757 q 35 863 29 826 q 74 990 43 932 q 90 1020 81 1006 q 111 1044 99 1035 q 138 1052 124 1053 q 160 1039 153 1051 q 163 1025 163 1032 q 160 1011 163 1018 q 151 981 157 1003 q 142 940 146 960 q 215 944 178 953 q 275 906 251 938 q 277 903 276 904 q 281 899 278 901 q 304 817 308 864 q 278 742 301 776 q 234 702 261 718 q 178 683 207 686 z "},"":{"ha":333,"x_min":26,"x_max":304,"o":"m 221 583 q 194 575 210 575 q 172 589 179 575 q 170 603 169 596 q 174 617 171 610 q 182 646 176 625 q 192 686 188 667 q 117 682 156 675 q 85 697 100 686 q 58 721 69 707 q 53 729 56 724 q 33 767 39 744 q 28 811 26 789 q 56 885 32 853 q 99 925 72 908 q 154 944 126 942 q 225 935 196 949 q 272 897 254 922 q 297 836 290 871 q 299 765 304 801 q 284 699 293 732 q 260 638 275 667 q 244 608 253 622 q 221 583 235 593 z "},"":{"ha":626,"x_min":29,"x_max":600,"o":"m 178 682 q 108 691 138 678 q 60 731 78 704 q 35 791 42 757 q 35 863 29 825 q 49 927 39 894 q 74 989 58 960 q 90 1019 81 1004 q 111 1043 99 1033 q 138 1052 124 1053 q 160 1038 153 1051 q 160 1010 165 1028 q 151 981 157 1001 q 142 940 146 960 q 215 944 178 951 q 249 931 233 942 q 275 906 264 919 q 281 899 278 900 q 301 860 294 882 q 304 817 307 838 q 278 742 301 775 q 234 701 261 718 q 178 682 207 685 m 471 681 q 401 690 431 676 q 353 728 371 703 q 328 789 335 754 q 328 860 322 824 q 342 926 332 893 q 367 988 351 958 q 383 1017 374 1003 q 406 1042 392 1032 q 432 1050 417 1050 q 454 1036 447 1050 q 453 1008 458 1025 q 444 979 450 1000 q 435 939 439 958 q 508 943 471 950 q 542 928 526 939 q 568 904 557 918 q 571 900 569 901 q 574 896 572 899 q 594 858 588 881 q 599 814 600 836 q 571 740 594 772 q 527 700 554 717 q 471 681 500 683 z "},"":{"ha":626,"x_min":26,"x_max":597,"o":"m 221 585 q 194 577 210 576 q 172 590 179 578 q 170 604 169 597 q 174 618 171 611 q 182 648 176 626 q 192 689 188 669 q 117 683 157 676 q 58 724 81 692 q 53 731 56 725 q 33 768 39 746 q 28 813 26 790 q 56 888 32 853 q 99 927 72 911 q 154 946 126 943 q 225 937 196 950 q 272 898 254 924 q 297 838 290 872 q 299 767 304 803 q 284 701 293 733 q 260 639 275 669 q 244 609 253 624 q 221 585 235 594 m 514 583 q 488 575 503 575 q 465 589 472 575 q 463 603 463 596 q 467 617 464 610 q 475 646 469 625 q 485 686 481 667 q 411 682 449 675 q 378 697 393 686 q 351 721 363 707 q 346 729 349 724 q 326 767 332 744 q 321 811 319 789 q 349 885 325 853 q 392 925 365 908 q 447 944 419 942 q 518 935 489 949 q 565 897 547 922 q 590 836 583 871 q 592 765 597 801 q 578 699 588 732 q 553 638 568 667 q 537 608 546 622 q 514 583 528 593 z "},"":{"ha":928,"x_min":25,"x_max":901,"o":"m 876 56 q 807 2 851 19 q 719 -6 763 -15 q 660 33 683 1 q 654 40 657 39 q 634 79 640 57 q 631 122 628 101 q 657 197 633 163 q 701 237 674 221 q 757 257 728 253 q 815 253 785 260 q 865 228 844 247 q 890 190 882 213 q 900 144 899 168 q 895 97 901 121 q 876 56 889 74 m 579 56 q 509 2 553 19 q 422 -7 465 -15 q 363 33 385 1 q 357 40 360 35 q 337 78 343 57 q 332 122 331 100 q 360 197 336 163 q 403 237 376 221 q 458 256 431 253 q 517 252 486 258 q 568 226 547 246 q 593 190 585 211 q 603 144 601 168 q 598 97 604 121 q 579 56 592 74 m 274 43 q 203 -10 247 7 q 115 -18 160 -26 q 83 -4 99 -15 q 57 21 68 7 q 53 25 54 24 q 51 28 53 26 q 31 67 38 44 q 26 110 25 89 q 54 185 31 153 q 98 225 71 208 q 153 244 125 242 q 211 241 181 247 q 263 215 242 235 q 288 178 279 200 q 297 132 296 156 q 292 85 299 108 q 274 43 286 61 z "},"":{"ha":757,"x_min":26,"x_max":732,"o":"m 601 -8 q 440 -24 518 -39 q 297 38 361 -10 q 188 160 232 86 q 128 322 143 235 q 124 344 125 333 q 121 367 122 356 q 101 367 111 367 q 82 368 92 367 q 60 372 71 369 q 43 379 50 374 q 28 400 31 386 q 27 415 28 404 q 26 437 26 425 q 28 459 26 449 q 33 474 29 469 q 79 492 47 490 q 97 494 88 493 q 115 494 106 494 q 115 517 115 506 q 117 540 115 529 q 103 542 110 542 q 89 542 96 542 q 67 545 78 543 q 49 553 56 547 q 35 574 38 560 q 33 588 33 578 q 33 610 32 599 q 35 633 33 622 q 40 647 36 643 q 85 665 54 664 q 111 668 99 668 q 138 668 124 668 q 187 803 156 740 q 264 913 218 865 q 371 987 310 960 q 507 1014 432 1014 q 543 1009 519 1014 q 592 998 567 1004 q 641 983 618 992 q 675 969 664 975 q 707 930 699 954 q 710 883 715 906 q 687 844 704 860 q 643 832 669 828 q 608 840 626 835 q 572 850 589 846 q 537 854 554 854 q 506 846 519 854 q 460 775 474 826 q 440 668 446 724 q 469 667 456 667 q 497 665 483 667 q 540 661 518 664 q 574 650 561 658 q 585 634 581 644 q 590 612 589 624 q 591 590 592 600 q 589 572 590 579 q 581 558 586 565 q 564 547 575 551 q 535 543 551 543 q 504 542 519 543 q 470 540 488 540 q 435 540 453 540 q 434 518 435 529 q 435 494 433 507 q 463 493 449 493 q 492 492 476 493 q 533 488 511 490 q 567 476 556 485 q 578 460 574 471 q 583 438 582 450 q 584 416 585 426 q 582 399 583 406 q 558 374 576 381 q 529 369 544 369 q 499 368 514 368 q 469 367 483 367 q 442 367 456 367 q 453 299 446 332 q 473 240 461 267 q 502 194 485 213 q 543 168 519 175 q 579 169 560 163 q 618 185 599 176 q 656 199 638 194 q 689 194 674 204 q 727 144 722 174 q 716 86 732 115 q 669 31 700 57 q 601 -8 639 6 z "},"":{"ha":839,"x_min":25,"x_max":800,"o":"m 179 613 q 158 612 168 613 q 136 614 147 611 q 128 617 133 615 q 121 621 124 619 q 117 630 118 625 q 114 639 115 635 q 106 721 106 681 q 103 828 103 775 q 110 935 104 882 q 112 947 111 942 q 113 958 113 951 q 87 956 100 957 q 61 951 74 954 q 50 949 56 950 q 39 949 44 947 q 28 958 29 951 q 25 974 25 963 q 25 993 25 986 q 25 1004 25 999 q 26 1017 25 1010 q 29 1024 26 1019 q 35 1031 32 1029 q 58 1035 46 1036 q 81 1035 69 1035 q 201 1033 142 1032 q 324 1035 261 1035 q 341 1029 339 1035 q 340 1008 343 1024 q 336 987 338 999 q 333 965 335 975 q 327 949 331 956 q 318 943 324 943 q 277 944 297 943 q 236 947 257 946 q 241 888 239 919 q 246 829 243 857 q 279 647 258 740 q 280 638 281 643 q 276 628 279 632 q 268 622 274 624 q 256 619 263 621 q 217 614 236 615 q 179 613 199 613 m 458 619 q 444 616 454 617 q 422 615 433 615 q 401 616 411 615 q 385 617 390 617 q 357 622 368 617 q 347 635 351 625 q 342 651 343 642 q 338 668 340 660 q 333 729 333 699 q 342 903 329 817 q 358 976 349 942 q 372 1011 365 997 q 382 1022 378 1019 q 398 1030 389 1028 q 415 1033 407 1032 q 431 1033 421 1033 q 453 1033 442 1033 q 474 1031 464 1032 q 489 1025 485 1029 q 495 1019 492 1024 q 500 1011 499 1014 q 515 972 508 992 q 528 932 521 951 q 543 878 535 908 q 560 826 551 849 q 594 907 576 858 q 624 990 613 956 q 637 1018 629 1011 q 672 1028 644 1025 q 704 1031 688 1031 q 736 1029 721 1032 q 750 1028 743 1029 q 761 1022 757 1026 q 767 1015 765 1019 q 771 1007 768 1011 q 776 993 774 1000 q 781 979 778 986 q 795 885 793 933 q 799 789 797 838 q 799 725 799 757 q 797 661 800 693 q 794 637 796 649 q 779 621 793 625 q 740 616 761 615 q 700 617 718 617 q 665 629 675 615 q 658 667 656 643 q 660 727 661 699 q 660 788 658 756 q 660 858 661 822 l 660 875 q 640 823 649 850 q 625 768 632 796 q 620 753 622 761 q 611 739 618 744 q 598 733 606 735 q 583 732 590 732 q 560 729 568 731 q 535 732 551 728 q 506 748 513 738 q 494 775 500 758 q 477 826 488 796 q 458 875 467 857 l 458 794 q 461 749 460 771 q 465 703 463 726 q 469 674 467 688 q 469 644 471 660 q 467 630 469 638 q 458 619 465 622 z "},"":{"ha":669,"x_min":29,"x_max":640,"o":"m 513 288 q 319 285 415 290 q 125 286 222 279 q 85 292 106 288 q 50 313 64 297 q 34 351 36 328 q 31 396 32 374 q 30 417 31 403 q 29 447 29 431 q 31 476 29 463 q 35 496 32 489 q 57 518 40 508 q 70 522 64 521 q 83 525 76 522 q 123 533 103 532 q 163 536 143 535 q 305 539 233 540 q 449 535 376 538 q 518 535 483 533 q 588 529 553 536 q 610 521 599 526 q 628 506 621 515 q 635 481 632 497 q 639 444 638 464 q 640 408 640 425 q 640 381 640 390 q 635 344 640 363 q 617 313 629 326 q 600 299 610 304 q 579 292 590 294 q 566 290 575 290 q 547 288 557 289 q 526 288 536 288 q 513 288 517 288 z "},"|":{"ha":390,"x_min":42,"x_max":333,"o":"m 276 -122 q 257 -125 271 -125 q 227 -125 243 -125 q 197 -124 211 -125 q 176 -124 182 -124 q 129 -120 153 -124 q 90 -100 106 -117 q 84 -87 86 -96 q 81 -69 82 -79 q 78 -51 79 -60 q 78 -36 78 -42 q 74 178 75 72 q 69 393 72 285 q 64 574 67 485 q 58 756 61 664 q 60 902 57 829 q 51 1047 63 975 q 51 1057 51 1050 q 49 1067 50 1064 q 50 1096 42 1082 q 75 1113 58 1110 q 163 1119 119 1118 q 250 1119 206 1119 q 284 1122 267 1121 q 317 1114 301 1122 q 328 1096 326 1108 q 332 1072 331 1083 q 330 695 333 882 q 322 318 326 508 q 319 137 319 226 q 311 -43 318 47 q 308 -71 310 -57 q 300 -97 306 -85 q 276 -122 293 -117 z "},"`":{"ha":322,"x_min":22,"x_max":297,"o":"m 240 668 q 207 665 224 656 q 188 681 201 668 q 171 697 174 693 q 115 760 140 726 q 64 826 89 793 q 54 840 61 831 q 41 860 47 850 q 29 881 35 871 q 24 896 24 890 q 26 913 22 903 q 36 928 31 924 q 94 968 63 951 q 160 996 126 985 q 175 999 167 999 q 190 996 183 1000 q 201 981 196 992 q 213 958 207 971 q 222 933 218 946 q 228 915 225 921 q 258 833 243 875 q 288 751 272 792 q 294 733 290 742 q 296 715 297 725 q 282 692 293 701 q 261 680 272 685 q 240 668 250 675 z "},"!":{"ha":510,"x_min":46,"x_max":482,"o":"m 264 306 q 238 304 256 306 q 201 302 221 303 q 165 302 182 301 q 139 307 147 303 q 107 349 111 319 q 106 351 106 350 q 74 440 82 393 q 61 535 65 488 q 50 679 54 607 q 56 824 46 751 q 62 865 57 838 q 74 920 67 892 q 90 974 82 949 q 110 1010 99 999 q 135 1022 119 1019 q 165 1025 150 1025 q 256 1027 210 1026 q 347 1021 301 1028 q 375 1016 361 1018 q 404 1011 389 1014 q 438 1003 421 1008 q 468 988 456 999 q 482 956 481 974 q 479 935 482 944 q 474 915 476 925 q 447 838 460 876 q 424 760 435 800 q 393 647 407 703 q 368 532 379 590 q 356 446 360 489 q 339 363 351 403 q 314 321 332 338 q 291 309 304 313 q 264 306 278 306 m 283 -39 q 243 -47 264 -46 q 201 -47 222 -49 q 151 -37 176 -44 q 108 -10 125 -29 q 91 20 97 3 q 85 54 85 38 q 90 98 85 76 q 103 140 96 119 q 126 175 108 160 q 165 199 143 190 q 212 213 188 208 q 257 217 236 218 q 280 213 268 217 q 303 204 292 208 q 342 183 324 197 q 371 150 360 169 q 388 113 382 133 q 390 74 393 93 q 378 38 388 54 q 356 8 368 22 q 322 -19 340 -7 q 283 -39 303 -32 z "}}}
